<svg width="234" height="251" viewBox="0 0 234 251" fill="none" xmlns="http://www.w3.org/2000/svg">
<g clip-path="url(#clip0_20_1102)">
<path d="M222.781 63.6821H11.2187C5.62551 63.6821 1.09131 68.2112 1.09131 73.798V239.805C1.09131 245.392 5.62551 249.921 11.2187 249.921H222.781C228.374 249.921 232.909 245.392 232.909 239.805V73.798C232.909 68.2112 228.374 63.6821 222.781 63.6821Z" fill="white"/>
<path d="M222.781 251H11.2187C5.03097 251 0 245.975 0 239.794V73.798C0 67.6173 5.03097 62.592 11.2187 62.592H222.781C228.969 62.592 234 67.6173 234 73.798V239.794C234 245.975 228.969 251 222.781 251ZM11.2187 64.7722C6.23141 64.7722 2.18263 68.8273 2.18263 73.798V239.794C2.18263 244.776 6.23141 248.82 11.2187 248.82H222.781C227.769 248.82 231.817 244.776 231.817 239.794V73.798C231.817 68.8164 227.758 64.7722 222.781 64.7722H11.2187Z" fill="#080717"/>
<path d="M11.0987 76.0872C8.93785 76.0872 7.16992 74.3322 7.16992 72.1739C7.16992 70.0155 8.92694 68.2605 11.0987 68.2605C13.2704 68.2605 15.0165 70.0155 15.0165 72.1739C15.0165 74.3322 13.2595 76.0872 11.0987 76.0872ZM11.0987 70.4297C10.1383 70.4297 9.35255 71.2146 9.35255 72.163C9.35255 73.1113 10.1383 73.8962 11.0987 73.8962C12.059 73.8962 12.8339 73.1113 12.8339 72.163C12.8339 71.2146 12.0481 70.4297 11.0987 70.4297Z" fill="#080717"/>
<path d="M20.6368 76.0872C18.476 76.0872 16.7189 74.3322 16.7189 72.1739C16.7189 70.0155 18.476 68.2605 20.6368 68.2605C22.7976 68.2605 24.5546 70.0155 24.5546 72.1739C24.5546 74.3322 22.7976 76.0872 20.6368 76.0872ZM20.6368 70.4297C19.6764 70.4297 18.9016 71.2146 18.9016 72.163C18.9016 73.1113 19.6873 73.8962 20.6368 73.8962C21.5862 73.8962 22.372 73.1113 22.372 72.163C22.372 71.2146 21.5862 70.4297 20.6368 70.4297Z" fill="#080717"/>
<path d="M30.164 76.0872C28.0032 76.0872 26.2462 74.3322 26.2462 72.1739C26.2462 70.0155 28.0032 68.2605 30.164 68.2605C32.3248 68.2605 34.0818 70.0155 34.0818 72.1739C34.0818 74.3322 32.3248 76.0872 30.164 76.0872ZM30.164 70.4297C29.2036 70.4297 28.4288 71.2146 28.4288 72.163C28.4288 73.1113 29.2145 73.8962 30.164 73.8962C31.1134 73.8962 31.8992 73.1113 31.8992 72.163C31.8992 71.2146 31.1134 70.4297 30.164 70.4297Z" fill="#080717"/>
<path d="M32.4775 250.03L72.8781 192.169C84.0313 176.505 103.85 169.561 122.358 174.837L191.428 194.545C201.49 197.423 210.253 203.68 216.233 212.27L225.499 250.03V248.94L32.4994 250.03H32.4775Z" fill="#080717"/>
<path d="M63.1326 172.875V128.498C63.1326 123.538 60.448 118.949 56.1154 116.518C54.6094 115.668 52.8197 115.689 51.3246 116.561C49.8295 117.434 48.9346 118.992 48.9346 120.715V152.686C47.494 151.836 45.8134 151.335 44.0237 151.335H43.6526C40.4551 151.335 37.5303 152.883 35.7078 155.488C35.1294 155.379 34.5292 155.314 33.9181 155.314H33.547C30.2185 155.314 27.1519 156.992 25.3512 159.794C25.3294 159.826 25.3294 159.848 25.3185 159.881C24.5218 159.696 23.7034 159.598 22.863 159.598C16.8062 159.598 11.8844 164.514 11.8844 170.564V248.929C11.8844 249.245 12.1354 248.929 12.4519 248.929H59.7168C60.0333 248.929 60.2843 249.245 60.2843 248.929V209.109L60.8736 208.52C66.2865 203.113 69.2549 195.941 69.2549 188.299V182.871C69.2549 178.51 66.7558 174.739 63.1326 172.864V172.875Z" fill="white"/>
<path d="M46.6428 223.04C46.3591 223.04 46.0862 222.931 45.868 222.723C45.4424 222.298 45.4424 221.612 45.868 221.186L59.695 207.375C64.7914 202.285 67.5961 195.515 67.5961 188.321V182.892C67.5961 177.594 63.2854 173.289 57.9816 173.289H37.8796C36.7228 173.289 35.6314 173.79 34.8893 174.684C34.1473 175.567 33.8308 176.733 34.0272 177.867C34.562 180.985 37.0283 183.415 40.1604 183.906L52.1321 185.803C52.656 185.89 53.0379 186.326 53.0488 186.86C53.0598 187.383 52.6887 187.852 52.1758 187.95C52.1431 187.95 48.7054 188.67 45.3442 190.839C40.968 193.673 38.7526 197.554 38.7526 202.383C38.7526 202.982 38.2615 203.473 37.6613 203.473C37.0611 203.473 36.57 202.982 36.57 202.383C36.57 196.823 39.211 192.191 44.2201 188.975C45.3223 188.266 46.4136 187.71 47.4177 187.263L39.8221 186.053C35.7733 185.41 32.5758 182.26 31.8882 178.227C31.5827 176.45 32.0738 174.651 33.2305 173.267C34.3873 171.893 36.0898 171.098 37.8905 171.098H57.9925C64.4968 171.098 69.7896 176.385 69.7896 182.881V188.31C69.7896 196.093 66.7558 203.407 61.2446 208.901L47.4177 222.713C47.1994 222.931 46.9266 223.029 46.6428 223.029V223.04Z" fill="#080717"/>
<path d="M62.5651 174.085C61.9649 174.085 61.4738 173.594 61.4738 172.994V128.487C61.4738 124.127 59.1057 120.082 55.3079 117.946C54.3148 117.39 53.1362 117.401 52.1649 117.968C51.1827 118.545 50.5934 119.559 50.5934 120.693V152.697C50.5934 153.297 50.1023 153.787 49.5021 153.787C48.9019 153.787 48.4108 153.297 48.4108 152.697V120.693C48.4108 118.774 49.4039 117.052 51.0627 116.082C52.7215 115.112 54.7077 115.101 56.3883 116.038C60.8845 118.567 63.6674 123.331 63.6674 128.476V172.984C63.6674 173.583 63.1763 174.074 62.576 174.074L62.5651 174.085Z" fill="#080717"/>
<path d="M53.1689 172.864C52.5686 172.864 52.0776 172.373 52.0776 171.774V161.047C52.0776 156.611 48.4544 152.992 44.0127 152.992H43.6417C40.8807 152.992 38.3379 154.387 36.8428 156.709C36.5154 157.221 35.8388 157.363 35.3368 157.036C34.8348 156.709 34.682 156.033 35.0094 155.531C36.9083 152.566 40.1386 150.801 43.6526 150.801H44.0236C49.6767 150.801 54.2711 155.39 54.2711 161.036V171.763C54.2711 172.362 53.78 172.853 53.1798 172.853L53.1689 172.864Z" fill="#080717"/>
<path d="M43.0633 173.158C42.4631 173.158 41.972 172.667 41.972 172.068V165.015C41.972 160.578 38.3597 156.959 33.9071 156.959H33.5361C30.7751 156.959 28.2323 158.355 26.7372 160.677C26.4098 161.178 25.7332 161.331 25.2312 161.004C24.7292 160.677 24.5764 160.001 24.9038 159.499C26.8027 156.545 30.033 154.779 33.5361 154.779H33.9071C39.5602 154.779 44.1546 159.369 44.1546 165.015V172.068C44.1546 172.667 43.6635 173.158 43.0633 173.158Z" fill="#080717"/>
<path d="M59.7168 250.019C59.1166 250.019 58.6255 249.528 58.6255 248.929V210.613C58.6255 210.013 59.1166 209.523 59.7168 209.523C60.317 209.523 60.8081 210.013 60.8081 210.613V248.929C60.8081 249.528 60.317 250.019 59.7168 250.019Z" fill="#080717"/>
<path d="M12.4301 250.019C11.8298 250.019 11.3387 249.528 11.3387 248.929V170.564C11.3387 164.23 16.5007 159.074 22.8412 159.074C29.1818 159.074 34.3437 164.23 34.3437 170.564V185.541C34.3437 187.667 32.6194 189.389 30.4913 189.389C26.006 189.389 22.361 185.748 22.361 181.268V174.226C22.361 173.627 22.8521 173.136 23.4524 173.136C24.0526 173.136 24.5437 173.627 24.5437 174.226V181.268C24.5437 184.549 27.2174 187.209 30.4913 187.209C31.408 187.209 32.1611 186.457 32.1611 185.541V170.564C32.1611 165.429 27.9813 161.254 22.8412 161.254C17.7011 161.254 13.5214 165.429 13.5214 170.564V248.929C13.5214 249.528 13.0303 250.019 12.4301 250.019Z" fill="#080717"/>
<path d="M25.9078 175.316H20.7022C20.102 175.316 19.6109 174.826 19.6109 174.226C19.6109 173.627 20.102 173.136 20.7022 173.136H25.9078C26.508 173.136 26.9991 173.627 26.9991 174.226C26.9991 174.826 26.508 175.316 25.9078 175.316Z" fill="#080717"/>
<path d="M157.586 152.446C174.932 152.446 188.994 138.401 188.994 121.074C188.994 103.748 174.932 89.7019 157.586 89.7019C140.24 89.7019 126.178 103.748 126.178 121.074C126.178 138.401 140.24 152.446 157.586 152.446Z" fill="#080717"/>
<path d="M154.617 117.553C159.308 108.305 155.605 97.01 146.347 92.3244C137.089 87.6389 125.781 91.3372 121.09 100.585C116.399 109.833 120.101 121.128 129.36 125.813C138.618 130.499 149.926 126.8 154.617 117.553Z" fill="#080717"/>
<path d="M127.324 170.803C112.351 164.208 107.069 143.323 115.527 124.159C123.984 104.985 142.984 94.7927 157.957 101.388C170.464 106.892 176.204 122.361 172.832 138.472C175.789 135.114 180.438 133.425 185.12 134.471C191.635 135.932 195.979 142.451 194.8 149.024C193.523 156.131 186.615 160.698 179.62 159.161C178.125 158.834 176.75 158.235 175.527 157.461L173.345 191.635C177.328 192.692 122.271 212.226 130.096 183.241L134.014 172.624C131.733 172.351 129.485 171.763 127.324 170.803Z" fill="white"/>
<path d="M144.621 200.148C139.688 200.148 135.203 199.276 132.169 196.954C128.382 194.044 127.335 189.335 129.059 182.958L132.54 173.507C130.576 173.158 128.688 172.591 126.898 171.806C111.402 164.982 105.847 143.41 114.534 123.723C123.22 104.036 142.897 93.5718 158.405 100.396C170.3 105.628 176.64 119.821 174.458 135.583C177.59 133.381 181.551 132.564 185.371 133.425C192.443 135.016 197.157 142.102 195.891 149.231C195.226 152.948 193.13 156.153 189.987 158.246C186.844 160.339 183.09 161.047 179.401 160.241C178.408 160.023 177.448 159.696 176.531 159.26L174.491 191.199C174.578 191.34 174.632 191.504 174.654 191.667C174.785 192.638 173.792 193.215 173.268 193.52C169.798 195.526 156.036 200.17 144.632 200.17L144.621 200.148ZM127.771 169.811C129.768 170.694 131.918 171.272 134.155 171.545C134.483 171.588 134.778 171.774 134.952 172.057C135.127 172.34 135.159 172.689 135.05 173.005L131.143 183.623C129.528 189.629 130.641 193.684 134.581 195.93C144.392 201.522 168.576 193.88 172.275 191.569L174.458 157.385C174.48 157.003 174.709 156.654 175.058 156.48C175.407 156.305 175.811 156.327 176.138 156.534C177.306 157.276 178.561 157.799 179.871 158.093C182.981 158.769 186.135 158.18 188.776 156.414C191.417 154.649 193.185 151.956 193.741 148.828C194.811 142.832 190.838 136.869 184.891 135.529C180.766 134.602 176.466 135.997 173.661 139.18C173.334 139.551 172.799 139.66 172.352 139.431C171.904 139.213 171.675 138.723 171.773 138.232C175.102 122.273 169.241 107.525 157.521 102.369C143.115 96.0353 124.727 105.999 116.531 124.584C108.335 143.17 113.377 163.456 127.771 169.79V169.811Z" fill="#080717"/>
<path d="M176.269 150.561C176.269 150.561 176.182 150.561 176.127 150.561C175.527 150.484 175.102 149.939 175.178 149.34C175.647 145.612 177.077 142.843 179.412 141.099C182.774 138.592 186.768 139.213 186.932 139.246C187.521 139.344 187.925 139.9 187.826 140.499C187.728 141.088 187.172 141.502 186.571 141.393C186.495 141.393 183.276 140.924 180.689 142.865C178.856 144.238 177.732 146.506 177.339 149.612C177.273 150.168 176.804 150.572 176.258 150.572L176.269 150.561Z" fill="#080717"/>
<path d="M136.982 173.899C136.207 173.899 135.421 173.866 134.647 173.801C134.046 173.747 133.599 173.212 133.653 172.613C133.708 172.013 134.232 171.577 134.832 171.621C143.377 172.373 152.446 168.525 159.736 161.036C160.162 160.6 160.849 160.589 161.275 161.015C161.711 161.429 161.711 162.126 161.297 162.552C154.203 169.844 145.451 173.899 136.971 173.899H136.982Z" fill="#080717"/>
<path d="M124.323 120.235C124.639 121.238 122.642 122.775 119.848 123.658C117.055 124.541 114.534 124.443 114.217 123.44C113.901 122.437 115.898 120.9 118.692 120.017C121.485 119.134 124.006 119.232 124.323 120.235Z" fill="#080717"/>
<path d="M148.692 129.882C148.146 131.07 145.025 130.819 141.729 129.326C138.423 127.822 136.185 125.642 136.731 124.453C137.277 123.265 140.398 123.516 143.694 125.009C147 126.514 149.237 128.694 148.692 129.882Z" fill="#080717"/>
<path d="M125.578 139.573C125.239 139.573 124.901 139.409 124.683 139.115C123.581 137.567 123.373 135.539 124.148 133.806L127.651 125.979C127.891 125.434 128.546 125.184 129.092 125.424C129.637 125.674 129.888 126.317 129.648 126.862L126.145 134.689C125.676 135.736 125.796 136.913 126.462 137.839C126.811 138.33 126.702 139.006 126.211 139.366C126.014 139.507 125.796 139.573 125.578 139.573Z" fill="#080717"/>
<path d="M130.019 153.667C129.146 153.667 128.219 153.602 127.247 153.449C126.647 153.351 126.243 152.795 126.342 152.207C126.44 151.618 126.996 151.204 127.586 151.302C134.974 152.468 139.416 147.977 139.601 147.781C140.016 147.356 140.714 147.334 141.14 147.748C141.576 148.162 141.587 148.849 141.173 149.285C140.976 149.481 136.884 153.667 129.998 153.667H130.019Z" fill="#080717"/>
<path d="M140.845 102.194C142.144 108.985 148.714 113.444 155.523 112.136C162.333 110.828 166.786 104.276 165.476 97.4742C164.178 90.6831 157.608 86.2247 150.798 87.5328C143.988 88.8408 139.536 95.3922 140.845 102.194Z" fill="#080717"/>
<path d="M157.128 113.444C158.426 120.235 164.996 124.693 171.806 123.385C178.605 122.088 183.068 115.526 181.759 108.724C180.46 101.933 173.89 97.4742 167.081 98.7823C160.282 100.079 155.818 106.642 157.128 113.444Z" fill="#080717"/>
<path d="M162.191 138.548C162.803 141.742 165.891 143.835 169.089 143.225C172.286 142.614 174.381 139.529 173.77 136.335C173.159 133.141 178.998 112.365 169.907 114.098C159.147 116.158 161.591 135.354 162.202 138.548H162.191Z" fill="#080717"/>
<path d="M184.825 106.38C184.476 106.38 184.127 106.217 183.919 105.9C183.581 105.399 183.712 104.723 184.214 104.385C186.069 103.132 188.841 103.622 189.147 103.677C189.736 103.797 190.129 104.363 190.009 104.952C189.9 105.541 189.322 105.933 188.732 105.813C188.132 105.704 186.386 105.552 185.436 106.184C185.251 106.315 185.033 106.369 184.825 106.369V106.38Z" fill="#080717"/>
<path d="M183.778 104.974C183.396 104.974 183.014 104.767 182.817 104.407C182.533 103.884 182.719 103.219 183.243 102.935C183.319 102.892 184.782 102.031 184.793 100.33C184.793 99.7305 185.284 99.24 185.884 99.24C186.484 99.24 186.975 99.7305 186.975 100.33C186.975 103.36 184.411 104.788 184.301 104.843C184.138 104.93 183.952 104.974 183.778 104.974Z" fill="#080717"/>
<path d="M137.386 136.608C137.255 138.766 138.27 140.576 139.656 140.663C141.042 140.75 142.275 139.071 142.406 136.913C142.537 134.755 141.522 132.945 140.136 132.858C138.75 132.771 137.517 134.449 137.386 136.608Z" fill="#080717"/>
<path d="M116.367 133.556C116.236 135.714 117.251 137.523 118.637 137.611C120.023 137.698 121.256 136.019 121.387 133.861C121.518 131.702 120.503 129.893 119.117 129.806C117.731 129.719 116.498 131.397 116.367 133.556Z" fill="#080717"/>
<path d="M83.3548 2.41998C67.5307 8.45898 57.9162 24.5484 60.1097 41.3247L60.9391 47.6471C62.969 63.1588 60.6554 78.9322 54.2603 93.2121L53.7365 94.3785L81.7505 106.892L82.2744 105.726C88.6695 91.4462 98.8951 79.2047 111.827 70.3751L117.087 66.7778C131.067 57.2288 136.666 39.3407 130.62 23.5456C123.406 4.66553 102.235 -4.7854 83.3548 2.41998Z" fill="#5D42F2"/>
<path d="M58.327 75.7166L91.8315 90.6798L84.4684 107.129C82.2011 112.195 76.2423 114.477 71.1614 112.208L56.038 105.454C50.967 103.189 48.6821 97.2369 50.9539 92.1617L58.3171 75.7122L58.327 75.7166Z" fill="#080717"/>
<path d="M78.9349 87.9251C78.7821 87.9251 78.6184 87.8924 78.4766 87.827C77.9309 87.5763 77.6908 86.9223 77.9527 86.3772C78.051 86.1701 86.1813 68.8053 90.1427 59.5724C87.9165 59.2126 85.7557 58.5804 83.7585 57.7192L72.2997 83.3141C72.0487 83.8592 71.4158 84.1099 70.8592 83.8592C70.3135 83.6084 70.0625 82.9653 70.3135 82.4203L81.8051 56.7491C80.7574 56.1713 79.7862 55.5173 78.9022 54.8087C73.8057 50.6883 72.6817 44.8128 74.8316 41.9023C76.0102 40.3217 78.4111 39.406 81.6523 41.5862C86.9452 45.1507 84.9153 54.8523 84.828 55.2666C84.8171 55.3429 84.7844 55.4083 84.7626 55.4846L84.6534 55.7244C86.6287 56.5856 88.8113 57.1742 91.0267 57.4794C91.4087 56.542 91.7251 55.7571 91.9325 55.1685C94.1042 49.1513 95.7739 46.1536 99.9318 44.2786C105.836 41.6189 108.608 44.126 109.525 45.3142C111.336 47.6906 111.151 51.3641 109.077 53.8713C105.203 58.5695 98.7314 60.3136 92.4018 59.8449C88.5712 68.8598 80.3427 86.4317 79.9389 87.3038C79.7534 87.6962 79.3605 87.936 78.9458 87.936L78.9349 87.9251ZM93.2857 57.6756C98.7532 57.9263 104.177 56.3457 107.375 52.476C108.793 50.7537 108.968 48.192 107.778 46.6223C106.512 44.9654 103.97 44.8237 100.816 46.2517C97.6619 47.6688 96.1886 49.7508 93.9733 55.8988C93.7987 56.3784 93.5695 56.978 93.2857 57.6756ZM77.9964 42.48C77.4616 42.48 76.9596 42.6653 76.5668 43.1886C75.2572 44.9545 75.8138 49.511 80.2554 53.0973C80.9975 53.6969 81.816 54.2419 82.6781 54.7324L82.7 54.6888C82.8964 53.6969 84.2387 45.9574 80.4191 43.3848C79.9062 43.0469 78.924 42.4691 77.9964 42.4691V42.48Z" fill="#080717"/>
<path d="M52.4378 28.865C52.4378 28.865 52.3286 28.865 52.2741 28.8541L38.3707 26.5323C37.825 26.4451 37.4649 25.9327 37.5522 25.3877C37.6395 24.8427 38.1415 24.4829 38.6981 24.5701L52.6015 26.892C53.1471 26.9792 53.5073 27.4915 53.42 28.0366C53.3436 28.5162 52.9179 28.865 52.4378 28.865Z" fill="#080717"/>
<path d="M55.93 15.6318C55.7335 15.6318 55.548 15.5773 55.3734 15.4574L48.5199 10.7919C48.0725 10.4866 47.9524 9.86529 48.258 9.41836C48.5636 8.97143 49.1856 8.85152 49.6331 9.15674L56.4865 13.8223C56.9449 14.1275 57.054 14.7488 56.7485 15.1957C56.552 15.4792 56.2464 15.6318 55.93 15.6318Z" fill="#080717"/>
<path d="M42.234 46.6443C41.7429 46.6443 41.3282 46.2845 41.2518 45.794C41.1754 45.249 41.5464 44.7475 42.0921 44.6712L49.764 43.5703C50.3097 43.4939 50.8117 43.8646 50.8881 44.4096C50.9645 44.9546 50.5934 45.4561 50.0478 45.5324L42.3758 46.6333C42.3758 46.6333 42.2776 46.6333 42.234 46.6333V46.6443Z" fill="#080717"/>
</g>
<defs>
<clipPath id="clip0_20_1102">
<rect width="234" height="251" fill="white"/>
</clipPath>
</defs>
</svg>
