<svg width="302" height="229" viewBox="0 0 302 229" fill="none" xmlns="http://www.w3.org/2000/svg">
<g clip-path="url(#clip0_20_960)">
<path d="M99.12 220.63H59.97C55.31 220.63 53.85 214.33 58.03 212.28L129.63 177.16C130.23 176.86 130.9 176.71 131.57 176.71H170.72C175.38 176.71 176.84 183.01 172.66 185.06L101.06 220.18C100.46 220.48 99.79 220.63 99.12 220.63Z" fill="#080717"/>
<path d="M95.98 167.39L63.39 186.02L86.01 128.15L118.6 109.53L95.98 167.39Z" fill="#080717"/>
<path d="M95.98 167.39L63.39 186.01L90.62 187.95C91.08 187.98 91.54 187.88 91.94 187.65L117.28 173.17C119.27 172.03 118.58 169 116.29 168.83L95.98 167.38V167.39Z" fill="#080717"/>
<path d="M247.18 134.93C240.59 134.93 233.89 134.21 227.2 132.76C211.28 129.3 199.14 122.44 196.61 117.8C195.66 116.07 195.99 114.49 197.48 113.57C203.04 110.16 201.52 91.7701 200.41 78.3401C199.96 72.9501 199.58 68.2901 199.64 64.9901C199.8 55.7601 207.31 47.5201 221.37 41.1601C228.67 37.8601 238.83 38.4101 249.26 42.6801C256.51 45.6501 260.15 52.2801 263.08 57.6001C264.02 59.3101 264.91 60.9301 265.79 62.1701C267.65 64.7901 271.48 65.5301 274.86 66.1901C277.57 66.7201 280.14 67.2101 281.6 68.6401C283.4 70.3901 283.65 73.6701 283.92 77.1401C284.16 80.2001 284.41 83.3601 285.67 85.5301C286.53 87.0001 288.75 88.4801 291.1 90.0501C296.04 93.3501 302.19 97.4501 301.74 104.94C301.08 115.85 283.46 126.64 282.71 127.09C282.68 127.11 282.66 127.12 282.63 127.13C271.94 132.29 259.78 134.92 247.18 134.92V134.93ZM232.22 41.0301C228.5 41.0301 225.09 41.6801 222.2 42.9901C212.92 47.1901 201.82 54.4201 201.64 65.0301C201.59 68.2301 201.97 72.8401 202.41 78.1801C203.63 92.9001 205.14 111.23 198.53 115.28C198.23 115.47 197.77 115.75 198.37 116.84C200.27 120.32 210.88 127.16 227.63 130.8C238.65 133.19 260.32 135.67 281.72 125.35C282.64 124.78 299.16 114.45 299.75 104.81C300.13 98.4701 294.75 94.8801 290 91.7101C287.34 89.9301 285.04 88.4001 283.95 86.5301C282.46 83.9701 282.19 80.5701 281.94 77.2901C281.7 74.2001 281.47 71.2901 280.21 70.0601C279.17 69.0501 276.9 68.6101 274.48 68.1401C270.73 67.4101 266.48 66.5901 264.16 63.3201C263.21 61.9901 262.3 60.3201 261.33 58.5601C258.56 53.5101 255.11 47.2201 248.51 44.5201C242.82 42.1901 237.23 41.0101 232.22 41.0101V41.0301Z" fill="#080717"/>
<path d="M274.76 130.74C274.76 130.74 293.34 120.43 294.66 109.38C295.98 98.3299 282.5 93.7899 279.98 88.4699C277.47 83.1499 279.94 73.8599 277.16 70.6099C274.38 67.3599 264.97 68.2299 261.69 62.6199C258.41 57.0099 255.88 45.9799 246.88 41.3799C237.88 36.7799 227.77 34.8799 219.93 38.0299C212.09 41.1799 196.29 48.2099 197.34 60.8999C200.48 98.9799 184.13 91.4499 185.68 101.25C189.82 127.55 230.23 150.03 274.76 130.74Z" fill="#5D42F2"/>
<path d="M189.94 112.79C189.73 112.79 189.51 112.72 189.33 112.58C183.97 108.44 181.29 104.35 181.37 100.43C181.43 96.97 183.62 93.67 187.88 90.62C196 84.8 197.32 75.83 197.33 75.74C197.41 75.19 197.9 74.81 198.46 74.89C199.01 74.96 199.39 75.47 199.32 76.01C199.27 76.41 197.89 85.91 189.06 92.24C185.35 94.9 183.44 97.67 183.39 100.46C183.33 103.71 185.75 107.25 190.58 110.99C191.02 111.33 191.1 111.96 190.76 112.39C190.56 112.64 190.27 112.78 189.97 112.78L189.94 112.79Z" fill="#080717"/>
<path d="M231.09 144.34L197.3 130.73L196.68 96.6801L228.29 96.1101L231.09 144.34Z" fill="white"/>
<path d="M231.09 145.34C230.96 145.34 230.84 145.32 230.72 145.27L196.93 131.66C196.56 131.51 196.31 131.15 196.3 130.75L195.69 96.7C195.69 96.15 196.12 95.69 196.67 95.68L228.28 95.11C228.77 95.1 229.26 95.52 229.3 96.05L232.1 144.28C232.12 144.62 231.96 144.95 231.68 145.15C231.51 145.27 231.3 145.34 231.1 145.34H231.09ZM198.28 130.05L230 142.83L227.35 97.13L197.7 97.67L198.28 130.06V130.05Z" fill="#080717"/>
<path d="M279.37 154.53L258.52 113.7H197.7C184.97 113.7 173.61 121.71 169.34 133.71L149.28 190.12L122.99 178.54C120.5 177.44 117.63 177.64 115.31 179.06L96.45 190.64L80.04 208.08L81.01 208.79C85.01 211.73 90.46 211.73 94.47 208.8L101.07 203.98L106.71 208.83C112.32 213.66 119.71 215.89 127.06 214.96L128.77 214.75L163.62 226.25C173.45 229.49 184.01 223.95 186.93 214.02L195.45 185L200.44 193.04C206.85 203.37 218.15 209.64 230.3 209.64L269.5 187.44C281.07 180.89 285.42 166.38 279.38 154.54L279.37 154.53Z" fill="white"/>
<path d="M169.38 228.17C167.34 228.17 165.3 227.84 163.3 227.18L128.66 215.75L127.17 215.94C119.57 216.9 111.86 214.57 106.05 209.57L101.01 205.24L95.05 209.6C90.67 212.8 84.79 212.8 80.41 209.59L79.44 208.88C79.21 208.71 79.06 208.45 79.04 208.17C79.01 207.88 79.11 207.6 79.31 207.39L95.72 189.95C95.78 189.89 95.85 189.83 95.93 189.78L114.79 178.2C117.39 176.61 120.6 176.39 123.39 177.62L148.69 188.77L168.39 133.38C172.79 121.01 184.56 112.7 197.69 112.7H258.51C258.89 112.7 259.23 112.91 259.4 113.25L280.25 154.08C286.56 166.43 282.04 181.47 269.97 188.3L230.77 210.5C230.62 210.58 230.45 210.63 230.28 210.63C217.69 210.63 206.21 204.25 199.57 193.55L195.76 187.41L187.87 214.29C186.38 219.36 182.99 223.5 178.31 225.95C175.5 227.43 172.44 228.17 169.37 228.17H169.38ZM128.76 213.73C128.87 213.73 128.97 213.75 129.07 213.78L163.92 225.28C168.41 226.76 173.2 226.37 177.39 224.17C181.58 221.97 184.62 218.26 185.96 213.72L194.48 184.7C194.59 184.32 194.91 184.04 195.31 183.99C195.7 183.94 196.09 184.12 196.29 184.45L201.28 192.49C207.51 202.52 218.24 208.53 230.03 208.62L269 186.55C280.13 180.24 284.3 166.37 278.48 154.98L257.91 114.69H197.7C185.42 114.69 174.4 122.46 170.28 134.04L150.22 190.45C150.13 190.71 149.93 190.92 149.67 191.03C149.42 191.14 149.13 191.14 148.87 191.03L122.58 179.45C120.39 178.49 117.87 178.66 115.83 179.91L97.08 191.42L81.53 207.94L81.59 207.98C85.26 210.67 90.19 210.68 93.87 207.99L100.47 203.17C100.85 202.9 101.36 202.92 101.71 203.22L107.35 208.07C112.74 212.7 119.88 214.85 126.92 213.97L128.63 213.76C128.63 213.76 128.71 213.76 128.75 213.76L128.76 213.73Z" fill="#080717"/>
<path d="M221.11 107.16C228.69 106.35 236.06 102.67 241.47 96.2898C252.38 83.3998 250.87 64.6698 238.63 53.8198C218.55 36.0198 199.91 51.6998 197.35 55.9698C196.75 56.9698 196.16 57.9398 195.59 58.8698C194.44 60.3198 193.45 61.8398 192.59 63.4098C190.31 66.5498 188.06 68.6698 185.48 68.9998C181.53 69.5098 177.68 98.5199 199.5 100.8L221.12 107.16H221.11Z" fill="white"/>
<path d="M221.1 108.16C220.6 108.16 220.16 107.78 220.11 107.27C220.05 106.72 220.45 106.23 221 106.17C228.65 105.35 235.65 101.62 240.7 95.6499C251.18 83.2699 249.98 65.2299 237.96 54.5699C230.77 48.1999 223.11 45.5799 215.18 46.7899C205.92 48.2099 199.4 54.4799 198.19 56.4899C197.59 57.4899 197 58.4599 196.42 59.3999C196.4 59.4299 196.38 59.4699 196.35 59.4999C195.25 60.8899 194.27 62.3699 193.45 63.8999C193.43 63.9399 193.41 63.9799 193.38 64.0099C190.6 67.8199 188.2 69.6699 185.59 70.0099C184.63 70.3499 182.78 75.8199 183.61 82.7899C184.3 88.5999 187.3 98.5399 199.59 99.8199C200.14 99.8799 200.54 100.37 200.48 100.92C200.42 101.47 199.94 101.86 199.38 101.81C195.22 101.38 181.63 98.4999 181.41 79.6899C181.35 74.2899 182.7 68.3699 185.34 68.0299C187.35 67.7699 189.32 66.1899 191.73 62.8899C192.59 61.2999 193.61 59.7599 194.75 58.3099C195.31 57.3999 195.88 56.4499 196.47 55.4699C198.28 52.4699 205.53 46.2599 214.87 44.8299C223.41 43.5199 231.62 46.2999 239.28 53.0899C252.12 64.4699 253.41 83.7399 242.22 96.9599C236.83 103.32 229.37 107.31 221.21 108.18C221.17 108.18 221.14 108.18 221.1 108.18V108.16Z" fill="#080717"/>
<path d="M244.83 49.8701C236.49 42.8101 225.48 40.8901 215.49 43.7101C218.16 44.9601 220.71 46.5401 223.04 48.5201C238.88 61.9301 239.48 87.2501 224.39 105.08C223.55 106.07 222.68 107.01 221.78 107.91C231.38 108.08 241.09 104 247.91 95.9501C259.75 81.9701 258.37 61.3401 244.83 49.8701Z" fill="#5D42F2"/>
<path d="M220.5 41.3301C215.02 41.8701 210.67 46.0901 211.14 51.5801L208.67 60.1401C206.31 68.3301 206.56 77.0501 209.39 85.0901L215.45 102.31C215.49 105.31 217.47 107.93 220.35 108.78L229 111.34L233.42 103.82L237.84 47.3701C237.84 47.3701 239.15 39.5001 220.49 41.3401L220.5 41.3301Z" fill="#5D42F2"/>
<path d="M187.67 84.5199C187.5 84.5199 187.33 84.5199 187.15 84.4999C186.6 84.4499 186.2 83.9599 186.25 83.4099C186.3 82.8599 186.79 82.4499 187.34 82.5099C189.44 82.6999 191.02 80.9299 191.03 80.9099C191.39 80.4899 192.02 80.4399 192.44 80.7999C192.86 81.1599 192.91 81.7799 192.56 82.1999C192.48 82.2999 190.56 84.5199 187.68 84.5199H187.67Z" fill="#080717"/>
<path d="M204.73 64.3401C204.62 64.3401 204.51 64.3201 204.4 64.2801C203.88 64.1001 203.6 63.5301 203.78 63.0101C204.02 62.3301 203.7 60.8501 202.78 59.6301C202.23 58.9101 201.03 57.7201 199.08 57.8501C198.54 57.8901 198.05 57.4701 198.02 56.9201C197.98 56.3701 198.4 55.8901 198.95 55.8601C201.08 55.7101 203 56.6301 204.37 58.4201C205.64 60.0801 206.17 62.2401 205.67 63.6701C205.53 64.0801 205.14 64.3401 204.73 64.3401Z" fill="#080717"/>
<path d="M197.4 66.79C196.73 67.42 195.82 67.53 195.37 67.05C194.92 66.57 195.1 65.67 195.76 65.05C196.43 64.42 197.34 64.31 197.79 64.79C198.24 65.27 198.06 66.17 197.4 66.79Z" fill="#080717"/>
<path d="M275.89 100.96C269.14 89.1699 253.26 85.0199 240.41 91.7099C235.9 94.0499 232.37 97.4199 229.97 101.31C225.28 99.1599 214.99 96.1199 214.47 101.78C212.47 123.69 203.17 115.54 207.45 123.03C211.73 130.52 243.07 147.64 273.66 131.23C286.43 124.38 282.64 112.76 275.89 100.96Z" fill="#5D42F2"/>
<path d="M209.68 86.96C208.71 91.71 211.77 96.35 216.53 97.33C221.28 98.3 225.92 95.24 226.9 90.48C227.87 85.73 224.81 81.09 220.05 80.11C215.29 79.13 210.66 82.2 209.68 86.96Z" fill="white"/>
<path d="M214.01 91.01C213.94 91.01 213.88 91.01 213.81 90.99C213.27 90.88 212.92 90.35 213.03 89.81C213.9 85.57 220.66 84.91 220.95 84.89C221.49 84.85 221.99 85.25 222.04 85.8C222.09 86.35 221.69 86.84 221.14 86.89C219.59 87.03 215.47 87.91 215 90.22C214.9 90.69 214.49 91.02 214.02 91.02L214.01 91.01Z" fill="#080717"/>
<path d="M112.87 193.7L96.4601 190.62L112.87 193.7Z" fill="white"/>
<path d="M112.87 194.7C112.81 194.7 112.75 194.7 112.68 194.68L96.27 191.6C95.73 191.5 95.3701 190.98 95.4701 190.43C95.5701 189.89 96.0901 189.53 96.6401 189.63L113.05 192.71C113.59 192.81 113.95 193.33 113.85 193.88C113.76 194.36 113.34 194.7 112.87 194.7Z" fill="#080717"/>
<path d="M115.95 188.45L105.31 185.37L115.95 188.45Z" fill="white"/>
<path d="M115.95 189.45C115.86 189.45 115.77 189.44 115.67 189.41L105.03 186.33C104.5 186.18 104.19 185.62 104.35 185.09C104.5 184.56 105.06 184.25 105.59 184.41L116.23 187.49C116.76 187.64 117.07 188.2 116.91 188.73C116.78 189.17 116.38 189.45 115.95 189.45Z" fill="#080717"/>
<path d="M120.43 183.58L112.99 181.02L120.43 183.58Z" fill="white"/>
<path d="M120.43 184.58C120.32 184.58 120.21 184.56 120.1 184.52L112.66 181.96C112.14 181.78 111.86 181.21 112.04 180.69C112.22 180.17 112.79 179.89 113.31 180.07L120.75 182.63C121.27 182.81 121.55 183.38 121.37 183.9C121.23 184.31 120.84 184.57 120.42 184.57L120.43 184.58Z" fill="#080717"/>
<path d="M144.15 205.5L149.28 190.11L144.15 205.5Z" fill="white"/>
<path d="M144.15 206.5C144.05 206.5 143.94 206.48 143.83 206.45C143.31 206.28 143.02 205.71 143.2 205.18L148.33 189.79C148.5 189.27 149.07 188.98 149.59 189.16C150.11 189.33 150.4 189.9 150.22 190.43L145.09 205.82C144.95 206.24 144.56 206.5 144.14 206.5H144.15Z" fill="#080717"/>
<path d="M199.55 164.98L195.45 184.98L199.55 164.98Z" fill="white"/>
<path d="M195.44 185.99C195.37 185.99 195.31 185.99 195.24 185.97C194.7 185.86 194.35 185.33 194.46 184.79L198.56 164.79C198.67 164.25 199.19 163.9 199.74 164.01C200.28 164.12 200.63 164.65 200.52 165.19L196.42 185.19C196.32 185.66 195.91 185.99 195.44 185.99Z" fill="#080717"/>
<path d="M156.21 173.19C156.21 173.19 158.52 188.58 190.83 196.27L156.21 173.19Z" fill="white"/>
<path d="M190.83 197.27C190.75 197.27 190.68 197.27 190.6 197.24C158.01 189.48 155.32 173.99 155.22 173.34C155.14 172.79 155.51 172.28 156.06 172.2C156.62 172.11 157.11 172.49 157.2 173.04C157.23 173.21 159.96 187.89 191.06 195.3C191.6 195.43 191.93 195.97 191.8 196.5C191.69 196.96 191.28 197.27 190.83 197.27Z" fill="#080717"/>
<path d="M15.4901 44.0801L131.96 27.4901C137.62 26.6801 142.91 30.4701 143.99 36.0801L159.05 114.96C159.99 119.86 157.42 124.75 152.86 126.76L39.5601 176.79C33.1501 179.62 25.7901 175.63 24.6701 168.71L6.43006 56.3901C5.47006 50.4701 9.55006 44.9201 15.4901 44.0801Z" fill="#080717"/>
<path d="M9.18 46.4999L126.98 28.4799C132.7 27.5999 138.12 31.2899 139.28 36.8599L155.57 115.02C156.58 119.87 154.04 124.77 149.45 126.83L35.29 178.03C28.83 180.93 21.32 177.06 20.09 170.2L0.169997 58.8599C-0.880003 52.9899 3.19 47.4299 9.19 46.5099L9.18 46.4999Z" fill="#080717"/>
<path d="M13.88 52.39L33.12 170.88L151.59 118.57L135.64 35.04L13.88 52.39Z" fill="white"/>
<path d="M69.3801 86.3199C69.3801 86.3199 63.8801 76.2599 62.3001 71.6499C60.7201 67.0399 63.4501 62.8699 68.1001 57.5799C72.7501 52.2899 72.2501 53.3199 70.2301 53.0199C68.2101 52.7199 72.5201 48.7299 80.0201 47.6799C87.5201 46.6299 100.83 47.3399 99.8901 61.5299C98.9501 75.7199 76.4601 96.5699 69.3801 86.3299V86.3199Z" fill="#080717"/>
<path d="M70.69 116.7C70.69 116.7 75.15 113.92 76.09 108.58C77.03 103.24 76.66 97.5499 74.07 95.0099C71.48 92.4699 64.5 84.5199 68.05 81.4099C70.41 79.3399 72.9 83.5299 74.85 84.9699C76.8 86.4199 76.27 84.8799 75.81 82.1999C75.35 79.5199 75.86 74.0599 77.74 72.2299C79.62 70.3999 75.29 62.9699 72.95 62.1199C70.61 61.2699 79.96 60.2399 85.67 58.0199C91.38 55.7999 93.42 54.2399 98.34 57.6299C103.27 61.0199 105.88 66.1299 107.39 71.8899C108.9 77.6399 109.11 91.8999 109.73 94.8499C110.35 97.8099 109.94 99.8199 105.42 102.17C104.46 102.67 103.28 104.55 103.86 108.34C105.43 118.63 102.94 121.87 90.74 124.26C83.63 125.65 77.74 123.17 70.68 116.7H70.69Z" fill="white"/>
<path d="M87.06 125.63C81.43 125.63 76.14 123.05 70.01 117.44C69.78 117.23 69.66 116.92 69.69 116.61C69.72 116.3 69.89 116.02 70.15 115.85C70.2 115.82 74.25 113.21 75.09 108.4C76.09 102.71 75.41 97.7299 73.36 95.7199C72.6 94.9699 65.92 88.2699 66.06 83.5599C66.1 82.3699 66.54 81.3899 67.39 80.6499C69.85 78.4999 72.3 81.0399 73.93 82.7299C74.34 83.1599 74.74 83.5699 75.1 83.8799C75.07 83.6999 75.03 83.5099 75 83.3299C74.94 83.0299 74.88 82.6999 74.83 82.3599C74.38 79.7599 74.75 73.7399 77.04 71.5099C77.18 71.3699 77.29 70.8899 77.09 69.9999C76.51 67.3299 73.88 63.5199 72.6 63.0599C71.66 62.7199 71.56 62.1099 71.58 61.7699C71.65 60.6299 72.88 60.3399 76.97 59.3999C79.58 58.7999 82.82 58.0499 85.31 57.0899C85.98 56.8299 86.61 56.5699 87.19 56.3399C91.67 54.5199 94.13 53.5199 98.92 56.8099C103.48 59.9499 106.58 64.7999 108.37 71.6399C109.33 75.2999 109.77 82.1399 110.12 87.6299C110.32 90.8399 110.5 93.5999 110.72 94.6599C111.43 98.0299 110.86 100.49 105.9 103.07C105.43 103.31 104.34 104.71 104.87 108.21C106.53 119.13 103.54 122.79 90.95 125.26C89.63 125.52 88.34 125.65 87.07 125.65L87.06 125.63ZM72.26 116.77C78.91 122.62 84.28 124.5 90.55 123.27C102.19 120.99 104.38 118.36 102.88 108.49C102.24 104.3 103.6 101.99 104.96 101.28C109.24 99.0499 109.25 97.4399 108.75 95.0499C108.5 93.8599 108.33 91.1599 108.11 87.7399C107.77 82.3299 107.34 75.6099 106.42 72.1299C104.73 65.6899 101.98 61.3399 97.77 58.4399C93.87 55.7599 92.26 56.4099 87.93 58.1699C87.34 58.4099 86.71 58.6699 86.02 58.9299C83.4 59.9499 80.08 60.7199 77.41 61.3299C76.48 61.5399 75.42 61.7899 74.6 62.0099C76.54 63.6899 78.52 67.1499 79.04 69.5599C79.37 71.0799 79.16 72.2099 78.43 72.9199C76.87 74.4399 76.36 79.4799 76.79 82.0099C76.85 82.3499 76.91 82.6599 76.96 82.9599C77.28 84.7099 77.48 85.7699 76.59 86.3199C75.73 86.8599 74.76 86.1399 74.24 85.7599C73.66 85.3299 73.09 84.7399 72.48 84.1099C70.54 82.0999 69.58 81.3799 68.7 82.1499C68.28 82.5199 68.07 82.9799 68.05 83.6099C67.96 86.7499 72.39 91.9599 74.75 94.2799C77.34 96.8199 78.2 102.22 77.05 108.74C76.33 112.84 73.73 115.53 72.24 116.76L72.26 116.77Z" fill="black"/>
<path d="M79.3501 97.0898C79.3501 97.0898 86.2701 102.64 89.7501 103.55C93.2301 104.47 103.32 101.54 106.83 100.59C110.34 99.6498 105.52 100.25 99.6501 106.62C93.7801 112.99 87.1601 123.12 85.2301 119.82C83.3101 116.52 79.9101 110.39 79.7301 107.54C79.5501 104.7 79.3401 97.0798 79.3401 97.0798L79.3501 97.0898Z" fill="#080717"/>
<path d="M100.77 83.4C100.37 83.4 100 83.16 99.8401 82.77C99.6301 82.26 99.8801 81.68 100.4 81.47C101.85 80.89 102.86 79.51 103.32 78.76L96.8501 70.19C96.5201 69.75 96.6101 69.12 97.0501 68.79C97.4901 68.46 98.1201 68.55 98.4501 68.99L105.31 78.08C105.53 78.38 105.57 78.77 105.42 79.11C105.36 79.24 103.93 82.22 101.15 83.33C101.03 83.38 100.9 83.4 100.78 83.4H100.77Z" fill="black"/>
<path d="M84.01 71.5199C83.8 71.5199 83.59 71.4499 83.41 71.3199C82.97 70.9899 82.88 70.3599 83.21 69.9199C85.77 66.5199 88.12 66.7099 90.39 66.8899C90.73 66.9199 91.07 66.9499 91.42 66.9599C91.97 66.9899 92.4 67.4499 92.37 68.0099C92.34 68.5599 91.85 68.9699 91.32 68.9599C90.94 68.9399 90.58 68.9099 90.22 68.8799C88.1 68.7099 86.7 68.5899 84.8 71.1199C84.6 71.3799 84.3 71.5199 84 71.5199H84.01Z" fill="black"/>
<path d="M99.6601 67.7698C99.2701 67.7698 98.9001 67.5399 98.7401 67.1599C98.5201 66.6499 98.7601 66.0598 99.2601 65.8498C99.7001 65.6598 100.1 65.2899 100.53 64.8999C101.04 64.4399 101.61 63.9098 102.36 63.5898C103.76 62.9898 106 63.4999 106.96 64.6499C107.31 65.0699 107.26 65.7098 106.83 66.0598C106.4 66.4098 105.78 66.3598 105.42 65.9298C105.02 65.4498 103.75 65.1698 103.15 65.4298C102.71 65.6198 102.31 65.9898 101.88 66.3798C101.37 66.8498 100.79 67.3699 100.05 67.6899C99.9201 67.7499 99.7901 67.7698 99.6601 67.7698Z" fill="black"/>
<path d="M92.7301 74.4898C93.0301 75.4698 92.7101 76.4498 92.0001 76.6698C91.2901 76.8898 90.4701 76.2698 90.1701 75.2898C89.8701 74.3098 90.1901 73.3298 90.9001 73.1098C91.6101 72.8898 92.4301 73.5098 92.7301 74.4898Z" fill="black"/>
<path d="M105.56 70.5298C105.86 71.5098 105.54 72.4898 104.83 72.7098C104.12 72.9298 103.3 72.3098 103 71.3298C102.7 70.3498 103.02 69.3698 103.73 69.1498C104.44 68.9298 105.26 69.5498 105.56 70.5298Z" fill="black"/>
<path d="M99.8501 94.2299C98.3701 94.2299 96.9401 92.8999 96.1101 91.4599C95.3601 90.1399 95.2701 89.0499 95.8801 88.3699C96.6801 87.4799 100.62 86.4699 103.79 85.7799C104.06 85.7199 104.35 85.7799 104.58 85.9399C104.81 86.0999 104.96 86.3499 105 86.6199C105.79 92.4299 102.01 93.8499 100.34 94.1799C100.18 94.2099 100.02 94.2299 99.8601 94.2299H99.8501ZM97.4901 89.6399C97.5801 90.0799 98.0601 91.0199 98.8301 91.6999C99.2501 92.0799 99.6801 92.2799 99.9301 92.2299C102.07 91.7899 103.13 90.3699 103.09 87.9899C100.71 88.5499 98.2501 89.2399 97.4901 89.6399Z" fill="black"/>
<path d="M135.72 126.49C135.42 126.49 135.12 126.35 134.92 126.09L126.82 115.35C122.83 109.83 115.95 107.08 109.29 108.33L104.06 109.31C103.51 109.42 102.99 109.05 102.89 108.51C102.79 107.97 103.15 107.44 103.69 107.34L108.92 106.36C116.35 104.97 124 108.03 128.43 114.16L136.52 124.88C136.85 125.32 136.77 125.95 136.32 126.28C136.14 126.42 135.93 126.48 135.72 126.48V126.49Z" fill="black"/>
<path d="M50.0901 165.73C49.5701 165.73 49.1301 165.33 49.0901 164.8L47.4301 141.02C47.4301 141.02 47.4301 140.93 47.4301 140.88L47.8901 133.93C48.3901 130.74 49.4701 128 51.0901 125.69C52.7101 123.38 54.4901 121.9 56.7001 121.05L70.34 115.76C70.85 115.56 71.43 115.82 71.6301 116.33C71.8301 116.85 71.5701 117.42 71.0601 117.62L57.4201 122.91C55.6001 123.62 54.1101 124.86 52.7301 126.84C51.2901 128.91 50.3301 131.37 49.8801 134.16L49.4301 140.95L51.0901 164.66C51.1301 165.21 50.7101 165.69 50.1601 165.73C50.1401 165.73 50.1101 165.73 50.0901 165.73Z" fill="black"/>
<path d="M134.25 52.07C134.25 55.68 131.33 58.6 127.72 58.6C124.11 58.6 121.19 55.68 121.19 52.07C121.19 48.46 124.11 45.54 127.72 45.54C131.33 45.54 134.25 48.46 134.25 52.07Z" fill="#5D42F2"/>
<path d="M137.11 66.74C137.11 70.35 134.19 73.27 130.58 73.27C126.97 73.27 124.05 70.35 124.05 66.74C124.05 63.13 126.97 60.21 130.58 60.21C134.19 60.21 137.11 63.13 137.11 66.74Z" fill="#080717"/>
<path d="M133.13 87.02C130.08 87.02 127.6 84.54 127.6 81.49C127.6 78.44 130.08 75.96 133.13 75.96C136.18 75.96 138.66 78.44 138.66 81.49C138.66 84.54 136.18 87.02 133.13 87.02Z" fill="white"/>
<path d="M133.13 76.97C135.63 76.97 137.66 79 137.66 81.5C137.66 84 135.63 86.03 133.13 86.03C130.63 86.03 128.6 84 128.6 81.5C128.6 79 130.63 76.97 133.13 76.97ZM133.13 74.97C129.52 74.97 126.6 77.89 126.6 81.5C126.6 85.11 129.52 88.03 133.13 88.03C136.74 88.03 139.66 85.11 139.66 81.5C139.66 77.89 136.74 74.97 133.13 74.97Z" fill="black"/>
<path d="M158.58 56.4099L163.9 36.4599L158.94 36.4799C157.56 36.6099 156.15 36.0699 155.15 34.9799C154.15 33.8999 153.72 32.4399 153.98 30.9899L158.26 5.95991C158.64 3.79991 160.5 2.15991 162.69 2.06991L213.2 -9.35793e-05C214.63 -0.0600936 215.96 0.509907 216.9 1.56991C217.84 2.61991 218.25 4.02991 218.03 5.41991L213.91 31.7599C213.57 33.9599 211.7 35.6199 209.49 35.7299L179.03 37.1299C178.73 37.1399 178.45 37.2299 178.2 37.3899L158.59 56.4099H158.58ZM166.51 34.4499L162.38 49.9399L177.01 35.7699C177.58 35.3799 178.25 35.1599 178.94 35.1299L209.4 33.7299C210.67 33.6699 211.74 32.7099 211.94 31.4499L216.06 5.10991C216.19 4.30991 215.95 3.49991 215.41 2.89991C214.87 2.29991 214.13 1.96991 213.29 1.99991L162.78 4.07991C161.52 4.12991 160.45 5.06991 160.24 6.30991L155.96 31.3299C155.82 32.1699 156.06 32.9999 156.63 33.6199C157.2 34.2399 158.03 34.5499 158.86 34.4799L166.53 34.4399L166.51 34.4499Z" fill="#5D42F2"/>
<path d="M177.73 29.9C177.32 29.9 176.91 29.86 176.5 29.77C173.28 29.09 171.21 27.47 170.41 25.07C168.97 25.39 167.2 25.59 165.03 25.63L164.99 23.63C167.04 23.6 168.7 23.4 170.04 23.11C170.01 22.55 170.04 21.96 170.11 21.35C170.33 19.59 171.23 17.82 172.29 17.04C172.96 16.54 173.57 16.52 173.96 16.59C175.59 16.88 176.76 18.45 176.62 20.17C176.55 21.02 176 23.19 172.31 24.52C172.91 26.21 174.43 27.3 176.89 27.81C179.19 28.29 181.93 26.65 183.99 24.53C181.78 22.19 180.33 19.26 180.59 17.44C180.93 15.08 182.65 13.1 184.69 12.73C186.42 12.42 188.01 13.3 189.04 15.16C190.26 17.36 189.51 20.69 187.03 24.04C186.95 24.15 186.86 24.27 186.77 24.38C188.61 25.87 191.47 27.33 194.9 26.16C196.57 25.59 197.9 24.57 198.89 23.37C197.41 21.36 196.41 18.84 196.56 17.05C196.65 15.96 197.16 15.15 197.99 14.75C199.8 13.89 200.97 14.3 201.64 14.79C202.75 15.62 203.21 17.28 202.88 19.33C202.68 20.6 202.19 21.97 201.41 23.26C201.72 23.58 202.05 23.86 202.39 24.1C204.66 25.68 205.47 24.98 205.48 24.98L206.97 26.31C206.9 26.4 205.12 28.44 201.25 25.75C200.9 25.51 200.55 25.22 200.22 24.9C199.04 26.26 197.48 27.4 195.56 28.06C192.17 29.22 188.6 28.45 185.47 25.89C183.29 28.14 180.45 29.89 177.73 29.89V29.9ZM185.38 14.67C185.28 14.67 185.18 14.67 185.07 14.7C183.89 14.91 182.8 16.25 182.59 17.73C182.46 18.66 183.47 20.98 185.33 23.01C185.37 22.96 185.41 22.91 185.44 22.86C187.38 20.23 188.12 17.59 187.31 16.13C186.93 15.44 186.3 14.67 185.38 14.67ZM173.62 18.56C173.3 18.61 172.32 19.88 172.1 21.6C172.06 21.92 172.04 22.22 172.03 22.52C173.79 21.81 174.57 20.87 174.64 20.02C174.7 19.25 174.16 18.67 173.62 18.57V18.56ZM199.95 16.27C199.57 16.27 199.13 16.44 198.86 16.57C198.69 16.65 198.59 16.87 198.56 17.23C198.47 18.3 199.09 20.04 200.08 21.58C200.51 20.73 200.78 19.86 200.91 19.04C201.13 17.63 200.84 16.7 200.45 16.41C200.31 16.31 200.14 16.27 199.95 16.27Z" fill="#5D42F2"/>
</g>
<defs>
<clipPath id="clip0_20_960">
<rect width="301.76" height="228.17" fill="white"/>
</clipPath>
</defs>
</svg>
