<svg width="289" height="215" viewBox="0 0 289 215" fill="none" xmlns="http://www.w3.org/2000/svg">
<g clip-path="url(#clip0_20_742)">
<path d="M87.9932 116.011L95.3262 120.368C99.8509 123.057 105.699 121.569 108.387 117.044L129.786 81.0324C132.475 76.5077 130.987 70.6601 126.462 67.9714L119.129 63.6139C114.604 60.9252 108.757 62.4135 106.068 66.9382L84.6689 102.95C81.9801 107.475 83.4685 113.322 87.9932 116.011Z" fill="white"/>
<path d="M100.18 122.69C98.35 122.69 96.5 122.21 94.82 121.21L87.49 116.86C82.5 113.89 80.85 107.42 83.82 102.42L105.22 66.41C108.19 61.42 114.66 59.77 119.66 62.74L126.99 67.09C131.98 70.06 133.63 76.53 130.66 81.53L109.26 117.54C107.29 120.85 103.78 122.69 100.19 122.69H100.18ZM88.51 115.14L95.84 119.49C99.88 121.89 105.13 120.56 107.54 116.51L128.94 80.5C131.34 76.46 130.01 71.21 125.96 68.81L118.63 64.46C114.59 62.06 109.34 63.39 106.93 67.44L85.53 103.45C83.13 107.49 84.46 112.74 88.51 115.14Z" fill="black"/>
<path d="M161.958 49.194C162.623 37.6981 148.13 27.5094 129.588 26.437C111.046 25.3646 95.4752 33.8146 94.8103 45.3105C94.1454 56.8064 108.638 66.9951 127.18 68.0675C145.723 69.1399 161.293 60.6899 161.958 49.194Z" fill="#080717"/>
<path d="M77.7499 64.16C79.5499 60.94 84.4499 60.26 88.6999 62.63C89.2299 62.92 89.7199 63.25 90.1699 63.6C91.7499 44.65 106.86 30.24 124.36 31.25C142.16 32.28 155.68 48.88 154.55 68.33C153.42 87.78 138.08 102.71 120.28 101.68C105.73 100.84 94.0499 89.59 90.8799 74.89C88.5499 76.1 85.2099 75.96 82.1999 74.28C77.9499 71.91 75.9599 67.38 77.7499 64.16Z" fill="white"/>
<path d="M122.01 102.73C121.42 102.73 120.82 102.71 120.22 102.68C106.05 101.86 93.8499 91.07 90.1699 76.27C87.6199 77.1 84.4899 76.71 81.7099 75.16C76.9799 72.52 74.8199 67.37 76.8799 63.68C77.8999 61.84 79.7799 60.65 82.1699 60.32C84.4499 60 86.9499 60.51 89.1899 61.77C89.2399 61.8 89.2999 61.83 89.3499 61.86C91.7099 43.01 106.84 29.26 124.42 30.27C142.74 31.33 156.71 48.44 155.55 68.4C154.43 87.71 139.57 102.74 122.01 102.74V102.73ZM90.8799 73.89C91.0299 73.89 91.1699 73.92 91.3099 73.99C91.5899 74.12 91.7999 74.38 91.8599 74.68C95.0399 89.43 106.49 99.88 120.34 100.68C137.57 101.69 152.46 87.14 153.55 68.28C154.64 49.42 141.52 33.26 124.3 32.26C107.28 31.27 92.7199 45.08 91.1699 63.69C91.1399 64.06 90.9099 64.38 90.5799 64.52C90.2399 64.67 89.8499 64.62 89.5599 64.39C89.1399 64.06 88.6799 63.76 88.2199 63.5C86.3499 62.46 84.2999 62.03 82.4499 62.29C80.6999 62.53 79.3399 63.37 78.6299 64.65C77.1099 67.38 78.9299 71.31 82.6899 73.41C85.2899 74.86 88.3299 75.09 90.4299 74.01C90.5699 73.94 90.7299 73.9 90.8899 73.9L90.8799 73.89Z" fill="black"/>
<path d="M124.97 21.15C137.16 18.93 148.53 21.07 155.25 26.08C157.1 27.46 155.48 30.34 153.31 29.55C146.81 27.18 138.46 26.52 129.69 28.12C111.63 31.41 98.62 43.01 100.63 54.04C100.71 54.48 100.82 54.91 100.94 55.33C98.27 53.05 96.49 50.26 95.91 47.07C93.9 36.04 106.91 24.44 124.97 21.15Z" fill="#080717"/>
<path d="M70.01 44.47C74.47 31.09 87.74 22.7 101.74 24.41L126.58 27.45L123.54 31.24C126.21 27.04 136.06 47.68 109.82 48.15C104.31 48.25 102.25 54.04 100.63 59.67C99.55 63.43 98.65 67.14 97.89 70.51C97.5 72.24 89.93 71.82 90.17 63.61C89.72 63.26 89.22 62.93 88.7 62.64C84.45 60.27 79.55 60.95 77.75 64.17C75.96 67.39 77.95 71.92 82.2 74.29C85.22 75.97 88.55 76.11 90.88 74.9C92.15 80.78 94.78 86.11 98.41 90.44L91.62 90.05C87.9 89.83 84.62 87.53 83.14 84.11L80.33 77.58L79.93 77.27C70.01 69.55 66.03 56.41 70 44.49L70.01 44.47Z" fill="#080717"/>
<path d="M144.63 69.0801C144.44 70.7301 145.24 72.1801 146.43 72.3201C147.62 72.4601 148.73 71.24 148.93 69.59C149.12 67.94 148.32 66.4901 147.13 66.3501C145.94 66.2101 144.83 67.4301 144.63 69.0801Z" fill="black"/>
<path d="M122.83 67.04C122.64 68.69 123.44 70.14 124.63 70.28C125.82 70.42 126.93 69.2 127.13 67.55C127.33 65.9 126.52 64.45 125.33 64.31C124.14 64.17 123.03 65.39 122.83 67.04Z" fill="black"/>
<path d="M125.84 87.76C125.77 87.76 125.7 87.76 125.63 87.74C123.16 87.25 120.96 85.65 119.74 83.45C119.45 82.92 119.64 82.26 120.17 81.97C120.69 81.68 121.36 81.87 121.65 82.4C122.56 84.05 124.21 85.25 126.05 85.61C126.64 85.73 127.02 86.3 126.91 86.89C126.81 87.41 126.35 87.77 125.84 87.77V87.76Z" fill="black"/>
<path d="M135.67 78C135.15 78 134.69 77.62 134.6 77.09C134.5 76.5 134.9 75.93 135.49 75.83C137.16 75.55 138.39 74.06 138.35 72.37L138.23 67.02C138.22 66.42 138.69 65.92 139.29 65.91C139.88 65.89 140.39 66.37 140.4 66.97L140.52 72.32C140.59 75.09 138.58 77.52 135.85 77.98C135.79 77.99 135.73 78 135.67 78Z" fill="black"/>
<path d="M121.61 61.5999C121.37 61.5999 121.13 61.5199 120.93 61.3599C120.46 60.9799 120.38 60.2999 120.76 59.8299C122.28 57.9299 125.09 57.2399 127.31 58.2499C127.86 58.4999 128.1 59.1399 127.85 59.6899C127.6 60.2399 126.96 60.4799 126.41 60.2299C125.09 59.6399 123.36 60.0499 122.46 61.1799C122.25 61.4499 121.93 61.5899 121.61 61.5899V61.5999Z" fill="black"/>
<path d="M150.45 64.36C150.21 64.36 149.96 64.28 149.76 64.11C148.66 63.2 147.34 62.54 145.96 62.19C145.38 62.04 145.02 61.45 145.17 60.87C145.32 60.29 145.91 59.93 146.49 60.08C148.18 60.51 149.79 61.32 151.14 62.43C151.61 62.81 151.67 63.5 151.29 63.96C151.07 64.22 150.76 64.36 150.45 64.36Z" fill="black"/>
<path d="M90.98 112.54L117.12 107.85C124.77 106.48 132.46 110.08 136.3 116.84L187.75 207.32H105.33L90.98 112.55V112.54Z" fill="#5D42F2"/>
<path d="M104.33 207.31H186.75L151.58 145.46H94.97L104.33 207.31Z" fill="white"/>
<path d="M186.75 208.31H104.33C103.84 208.31 103.41 207.95 103.34 207.46L93.98 145.61C93.94 145.32 94.02 145.03 94.21 144.81C94.4 144.59 94.68 144.46 94.97 144.46H151.59C151.95 144.46 152.28 144.65 152.46 144.97L187.63 206.82C187.81 207.13 187.8 207.51 187.63 207.82C187.45 208.13 187.12 208.32 186.77 208.32L186.75 208.31ZM105.19 206.31H185.03L151 146.46H96.13L105.19 206.31Z" fill="#080717"/>
<path d="M32.66 140.14L59.76 104.5C66.38 95.8 78.85 94.23 87.42 101.02L100.08 111.06L105.6 105.2H105.85C116.33 105.2 125.35 112.6 127.41 122.87L132.12 212.76H22.17L32.65 140.13L32.66 140.14Z" fill="#5D42F2"/>
<path d="M138.14 175.4H141.07C144.46 175.4 147.5 173.28 148.66 170.09C149.51 167.75 147.78 165.28 145.29 165.28H120.66L138.14 175.4Z" fill="white"/>
<path d="M141.08 176.4H138.15C137.6 176.4 137.15 175.95 137.15 175.4C137.15 174.85 137.6 174.4 138.15 174.4H141.08C144.04 174.4 146.71 172.53 147.73 169.74C148.02 168.94 147.91 168.08 147.42 167.38C146.93 166.68 146.16 166.28 145.31 166.28H120.68C120.13 166.28 119.68 165.83 119.68 165.28C119.68 164.73 120.13 164.28 120.68 164.28H145.31C146.8 164.28 148.21 165.01 149.06 166.23C149.92 167.45 150.12 169.02 149.61 170.42C148.31 173.99 144.88 176.39 141.08 176.39V176.4Z" fill="#080717"/>
<path d="M32.66 140.14L6.02002 175.24C-7.45998 193 8.33002 217.97 30.16 213.41L113.62 195.95L123.69 203C126.95 205.28 131.18 205.66 134.79 203.98L137.55 202.7C140.91 204.94 145.28 205.02 148.72 202.9L151.04 201.47L129.35 181.17C132.05 182.66 145.06 187.98 152.97 188.59C155.17 188.76 157.3 187.79 158.67 186.07L159.39 185.16L134.55 170.88C126.69 166.76 124.19 164.54 118.17 165.36L57.82 173.57L73.77 156.09C73.77 156.09 63.65 140.14 32.68 140.14H32.66Z" fill="white"/>
<path d="M24.93 214.96C16.46 214.96 8.74002 210.74 4.00002 203.24C-1.73998 194.16 -1.27998 183.2 5.22002 174.65L31.86 139.54C32.05 139.29 32.34 139.14 32.66 139.14C63.82 139.14 74.17 154.88 74.6 155.55C74.84 155.93 74.8 156.43 74.49 156.76L60.4 172.2L118.02 164.37C123.33 163.65 126.19 165.21 131.39 168.05C132.47 168.64 133.66 169.29 135.01 170L159.88 184.3C160.13 184.45 160.31 184.69 160.36 184.98C160.41 185.27 160.34 185.56 160.16 185.79L159.44 186.7C157.84 188.71 155.38 189.8 152.88 189.6C147.33 189.16 139.58 186.55 134.31 184.46L151.71 200.75C151.94 200.96 152.05 201.27 152.02 201.58C151.99 201.89 151.81 202.17 151.55 202.33L149.23 203.76C145.63 205.98 141.07 205.99 137.46 203.84L135.2 204.89C131.28 206.71 126.65 206.3 123.11 203.82L113.4 197.02L30.37 214.39C28.54 214.77 26.73 214.96 24.95 214.96H24.93ZM33.15 141.14L6.81002 175.85C0.830024 183.73 0.400024 193.81 5.69002 202.17C10.98 210.53 20.28 214.46 29.95 212.44L113.41 194.98C113.68 194.92 113.96 194.98 114.19 195.14L124.26 202.19C127.22 204.26 131.09 204.6 134.36 203.08L137.11 201.8C137.42 201.65 137.79 201.68 138.09 201.87C141.12 203.89 145.08 203.96 148.18 202.05L149.39 201.31L128.66 181.91C128.29 181.57 128.24 181 128.53 180.59C128.83 180.18 129.38 180.06 129.82 180.3C132.7 181.89 145.53 187.02 153.03 187.6C154.88 187.75 156.68 186.94 157.87 185.45L134.04 171.75C132.71 171.06 131.51 170.4 130.43 169.81C125.3 167 122.95 165.72 118.29 166.36L57.94 174.57C57.52 174.63 57.12 174.42 56.92 174.04C56.72 173.67 56.78 173.21 57.07 172.9L72.47 156.02C71.51 154.78 68.92 151.82 64.18 148.9C58.52 145.4 48.56 141.24 33.16 141.15L33.15 141.14Z" fill="#080717"/>
<path d="M121.89 188.9L137.53 202.7L121.89 188.9Z" fill="white"/>
<path d="M137.53 203.69C137.29 203.69 137.06 203.61 136.87 203.44L121.23 189.64C120.81 189.27 120.78 188.64 121.14 188.23C121.51 187.82 122.14 187.78 122.55 188.14L138.19 201.94C138.61 202.31 138.64 202.94 138.28 203.35C138.08 203.57 137.81 203.69 137.53 203.69Z" fill="#080717"/>
<path d="M129.78 181.61L124.57 177.4L129.78 181.61Z" fill="white"/>
<path d="M129.78 182.61C129.56 182.61 129.34 182.54 129.15 182.39L123.94 178.18C123.51 177.83 123.44 177.2 123.79 176.77C124.14 176.34 124.76 176.27 125.2 176.62L130.41 180.83C130.84 181.18 130.91 181.81 130.56 182.24C130.36 182.48 130.07 182.61 129.78 182.61Z" fill="#080717"/>
<path d="M73.75 157.08C73.5 157.08 73.25 156.99 73.06 156.8C72.66 156.42 72.65 155.79 73.03 155.39L89.37 138.29C89.75 137.89 90.38 137.88 90.78 138.26C91.18 138.64 91.19 139.27 90.81 139.67L74.47 156.77C74.27 156.98 74.01 157.08 73.75 157.08Z" fill="white"/>
<path d="M203.04 212.76L84.88 212.76V210.59C84.88 206.64 88.09 203.44 92.03 203.44H203.04V212.76Z" fill="#080717"/>
<path d="M157.19 212.77H264.63L288.24 141.41C290.52 134.52 285.39 127.41 278.13 127.41H193.13C188.54 127.41 184.46 130.36 183.02 134.72L157.2 212.77H157.19Z" fill="#080717"/>
<path d="M236.885 174.642C238.485 170.78 236.651 166.351 232.788 164.751C228.926 163.152 224.498 164.986 222.898 168.848C221.298 172.711 223.132 177.139 226.995 178.739C230.857 180.339 235.285 178.505 236.885 174.642Z" fill="white"/>
<path d="M229.89 180.32C225.17 180.32 221.32 176.48 221.32 171.75C221.32 167.02 225.16 163.18 229.89 163.18C234.62 163.18 238.46 167.02 238.46 171.75C238.46 176.48 234.62 180.32 229.89 180.32ZM229.89 165.19C226.27 165.19 223.32 168.14 223.32 171.76C223.32 175.38 226.27 178.33 229.89 178.33C233.51 178.33 236.46 175.38 236.46 171.76C236.46 168.14 233.51 165.19 229.89 165.19Z" fill="#080717"/>
<path d="M33.88 177.24L57.8 173.56L33.88 177.24Z" fill="white"/>
<path d="M33.88 178.24C33.39 178.24 32.97 177.89 32.89 177.39C32.81 176.84 33.18 176.33 33.73 176.25L57.65 172.57C58.2 172.48 58.71 172.86 58.79 173.41C58.87 173.96 58.5 174.47 57.95 174.55L34.03 178.23C33.98 178.23 33.93 178.24 33.88 178.24Z" fill="#080717"/>
<path d="M89.21 101.8L124.24 108.23L123.62 110.84C120.79 122.67 107.36 126.35 99.93 117.33L89.22 101.8H89.21Z" fill="white"/>
<path d="M115.59 105.35L124.46 107.79L115.59 105.35Z" fill="white"/>
<path d="M124.46 108.79C124.37 108.79 124.28 108.78 124.19 108.75L115.32 106.31C114.79 106.16 114.48 105.61 114.62 105.08C114.77 104.55 115.31 104.23 115.85 104.38L124.72 106.82C125.25 106.97 125.56 107.52 125.42 108.05C125.3 108.49 124.9 108.79 124.46 108.79Z" fill="black"/>
<path d="M116.26 103.8L111.6 112.22L116.26 103.8Z" fill="white"/>
<path d="M111.6 113.22C111.44 113.22 111.27 113.18 111.12 113.1C110.64 112.83 110.46 112.22 110.73 111.74L115.39 103.32C115.66 102.84 116.26 102.66 116.75 102.93C117.23 103.2 117.41 103.81 117.14 104.29L112.48 112.71C112.3 113.04 111.96 113.23 111.6 113.23V113.22Z" fill="black"/>
<path d="M273.55 13.0901H229.76C229.21 13.0901 228.76 12.6401 228.76 12.0901C228.76 11.5401 229.21 11.0901 229.76 11.0901H273.55C274.1 11.0901 274.55 11.5401 274.55 12.0901C274.55 12.6401 274.1 13.0901 273.55 13.0901Z" fill="#080717"/>
<path d="M270.12 21.4099H229.76C229.21 21.4099 228.76 20.9599 228.76 20.4099C228.76 19.8599 229.21 19.4099 229.76 19.4099H270.12C270.67 19.4099 271.12 19.8599 271.12 20.4099C271.12 20.9599 270.67 21.4099 270.12 21.4099Z" fill="#080717"/>
<path d="M223.3 1H195.58V28.72H223.3V1Z" fill="white"/>
<path d="M223.3 29.72H195.58C195.03 29.72 194.58 29.27 194.58 28.72V1C194.58 0.45 195.03 0 195.58 0H223.3C223.85 0 224.3 0.45 224.3 1V28.72C224.3 29.27 223.85 29.72 223.3 29.72ZM196.58 27.72H222.3V2H196.58V27.72Z" fill="#080717"/>
<path d="M206.47 20.6101C206.21 20.6101 205.96 20.5101 205.76 20.3201L201.23 15.7901C200.84 15.4001 200.84 14.7701 201.23 14.3801C201.62 13.9901 202.25 13.9901 202.64 14.3801L206.47 18.2101L216.64 8.04006C217.03 7.65006 217.66 7.65006 218.05 8.04006C218.44 8.43006 218.44 9.06006 218.05 9.45006L207.17 20.3301C206.97 20.5301 206.72 20.6201 206.46 20.6201L206.47 20.6101Z" fill="#080717"/>
<path d="M273.55 53.6602H229.76C229.21 53.6602 228.76 53.2102 228.76 52.6602C228.76 52.1102 229.21 51.6602 229.76 51.6602H273.55C274.1 51.6602 274.55 52.1102 274.55 52.6602C274.55 53.2102 274.1 53.6602 273.55 53.6602Z" fill="#080717"/>
<path d="M270.12 61.98H229.76C229.21 61.98 228.76 61.53 228.76 60.98C228.76 60.43 229.21 59.98 229.76 59.98H270.12C270.67 59.98 271.12 60.43 271.12 60.98C271.12 61.53 270.67 61.98 270.12 61.98Z" fill="#080717"/>
<path d="M223.3 41.5701H195.58V69.2901H223.3V41.5701Z" fill="white"/>
<path d="M223.3 70.2901H195.58C195.03 70.2901 194.58 69.8401 194.58 69.2901V41.5701C194.58 41.0201 195.03 40.5701 195.58 40.5701H223.3C223.85 40.5701 224.3 41.0201 224.3 41.5701V69.2901C224.3 69.8401 223.85 70.2901 223.3 70.2901ZM196.58 68.2901H222.3V42.5701H196.58V68.2901Z" fill="#080717"/>
<path d="M206.47 61.1801C206.2 61.1801 205.95 61.0701 205.76 60.8901L201.23 56.3601C200.84 55.9701 200.84 55.3401 201.23 54.9501C201.62 54.5601 202.25 54.5601 202.64 54.9501L206.47 58.7801L216.64 48.6101C217.03 48.2201 217.66 48.2201 218.05 48.6101C218.44 49.0001 218.44 49.6301 218.05 50.0201L207.17 60.9001C206.98 61.0901 206.73 61.1901 206.46 61.1901L206.47 61.1801Z" fill="#080717"/>
<path d="M273.55 94.23H229.76C229.21 94.23 228.76 93.78 228.76 93.23C228.76 92.68 229.21 92.23 229.76 92.23H273.55C274.1 92.23 274.55 92.68 274.55 93.23C274.55 93.78 274.1 94.23 273.55 94.23Z" fill="#080717"/>
<path d="M270.12 102.55H229.76C229.21 102.55 228.76 102.1 228.76 101.55C228.76 101 229.21 100.55 229.76 100.55H270.12C270.67 100.55 271.12 101 271.12 101.55C271.12 102.1 270.67 102.55 270.12 102.55Z" fill="#080717"/>
<path d="M223.3 82.1399H195.58V109.86H223.3V82.1399Z" fill="white"/>
<path d="M223.3 110.86H195.58C195.03 110.86 194.58 110.41 194.58 109.86V82.1399C194.58 81.5899 195.03 81.1399 195.58 81.1399H223.3C223.85 81.1399 224.3 81.5899 224.3 82.1399V109.86C224.3 110.41 223.85 110.86 223.3 110.86ZM196.58 108.86H222.3V83.1399H196.58V108.86Z" fill="#080717"/>
<path d="M206.47 101.75C206.2 101.75 205.95 101.64 205.76 101.46L201.23 96.93C200.84 96.54 200.84 95.9099 201.23 95.5199C201.62 95.1299 202.25 95.1299 202.64 95.5199L206.47 99.3499L216.64 89.18C217.03 88.79 217.66 88.79 218.05 89.18C218.44 89.57 218.44 90.1999 218.05 90.5899L207.17 101.47C206.98 101.66 206.73 101.76 206.46 101.76L206.47 101.75Z" fill="#080717"/>
</g>
<defs>
<clipPath id="clip0_20_742">
<rect width="288.79" height="214.96" fill="white"/>
</clipPath>
</defs>
</svg>
