<svg width="414" height="896" viewBox="0 0 414 896" fill="none" xmlns="http://www.w3.org/2000/svg">
<rect width="414" height="896" fill="#F5F5F5"/>
<g clip-path="url(#clip0_0_1)">
<rect width="414" height="896" fill="white"/>
<rect width="414" height="896" fill="url(#paint0_linear_0_1)"/>
<path d="M107 508.915V480.106C107 478.957 107.934 478.032 109.068 478.032H111.49C112.636 478.032 113.558 478.968 113.558 480.106V508.915C113.558 510.064 112.625 510.989 111.49 510.989H109.068C107.922 510.989 107 510.052 107 508.915Z" fill="white"/>
<path d="M127.561 490.084V508.914C127.561 510.064 126.627 510.988 125.493 510.988H123.071C121.924 510.988 121.003 510.052 121.003 508.914V480.106C121.003 478.956 121.936 478.032 123.071 478.032H124.796C125.398 478.032 125.966 478.292 126.356 478.743L143.856 498.936V480.106C143.856 478.956 144.789 478.032 145.924 478.032H148.299C149.445 478.032 150.367 478.968 150.367 480.106V508.914C150.367 510.064 149.433 510.988 148.299 510.988H146.574C145.971 510.988 145.404 510.727 145.002 510.265L127.549 490.072L127.561 490.084Z" fill="white"/>
<path d="M159.926 478.032H179.873C181.019 478.032 181.941 478.968 181.941 480.106V482.535C181.941 483.685 181.007 484.609 179.873 484.609H164.901C164.641 484.609 164.44 484.822 164.44 485.071V508.903C164.44 510.052 163.507 510.976 162.372 510.976H159.95C158.804 510.976 157.882 510.04 157.882 508.903V480.094C157.882 478.944 158.816 478.02 159.95 478.02L159.926 478.032ZM165.468 494.291L169.38 490.333C169.864 489.847 170.656 489.835 171.14 490.333L175.087 494.291C175.572 494.777 175.572 495.571 175.087 496.057L171.14 499.979C170.656 500.465 169.876 500.465 169.392 499.979L165.48 496.057C164.996 495.571 164.996 494.789 165.48 494.303L165.468 494.291Z" fill="white"/>
<path d="M186.632 508.914V480.106C186.632 478.956 187.565 478.032 188.7 478.032H191.122C192.268 478.032 193.19 478.968 193.19 480.106V508.914C193.19 510.064 192.257 510.988 191.122 510.988H188.7C187.554 510.988 186.632 510.052 186.632 508.914Z" fill="white"/>
<path d="M207.205 490.807V508.914C207.205 510.064 206.271 510.988 205.137 510.988H202.714C201.568 510.988 200.646 510.052 200.646 508.914V480.106C200.646 478.956 201.58 478.032 202.714 478.032H204.439C205.042 478.032 205.609 478.292 205.999 478.743L223.027 498.391C223.192 498.581 223.5 498.462 223.5 498.213V480.106C223.5 478.956 224.433 478.032 225.568 478.032H227.943C229.089 478.032 230.011 478.968 230.011 480.106V508.914C230.011 510.064 229.077 510.988 227.943 510.988H226.217C225.615 510.988 225.048 510.727 224.646 510.265L207.665 490.617C207.5 490.427 207.193 490.546 207.193 490.795L207.205 490.807Z" fill="white"/>
<path d="M237.49 508.914V480.106C237.49 478.956 238.424 478.032 239.558 478.032H241.981C243.127 478.032 244.049 478.968 244.049 480.106V508.914C244.049 510.064 243.115 510.988 241.981 510.988H239.558C238.412 510.988 237.49 510.052 237.49 508.914Z" fill="white"/>
<path d="M265.189 484.633V508.926C265.189 510.076 264.255 511 263.121 511H260.698C259.552 511 258.63 510.064 258.63 508.926V484.633H250.843C249.697 484.633 248.775 483.697 248.775 482.559V480.13C248.775 478.98 249.709 478.056 250.843 478.056H273.035C274.181 478.056 275.103 478.992 275.103 480.13V482.559C275.103 483.708 274.169 484.633 273.035 484.633H265.2H265.189Z" fill="white"/>
<path d="M295.285 500.832V508.914C295.285 510.064 294.352 510.988 293.217 510.988H290.795C289.649 510.988 288.727 510.052 288.727 508.914V500.832C288.727 500.489 288.644 500.145 288.479 499.837L278.293 481.101C277.537 479.715 278.541 478.032 280.113 478.032H282.854C283.611 478.032 284.308 478.447 284.674 479.122C285.513 480.686 286.647 482.76 288.054 485.332C289.826 488.567 291.15 490.996 292.024 492.632C292.898 490.996 294.222 488.567 295.994 485.332C297.401 482.748 298.535 480.674 299.374 479.122C299.74 478.447 300.437 478.044 301.194 478.032H303.923C305.495 478.032 306.499 479.715 305.743 481.101C303.805 484.656 300.414 490.901 295.557 499.837C295.392 500.145 295.297 500.489 295.297 500.832H295.285Z" fill="white"/>
<path d="M244.959 424.657L236.581 427.536C236.392 427.311 236.203 427.098 236.002 426.885L211.683 400.778C210.809 399.842 209.875 399.012 208.883 398.277C206.271 396.358 203.282 395.137 200.174 394.675C196.298 394.094 192.245 394.675 188.511 396.524L146.196 417.44L170.703 425.249C169.12 427.631 167.903 430.227 167.087 432.952L139.212 424.064C136.66 423.247 134.875 420.995 134.663 418.305C134.462 415.627 135.88 413.114 138.29 411.929L184.777 388.951C192.611 385.076 201.45 385.088 208.977 388.572C212.168 390.041 215.11 392.127 217.65 394.817C217.721 394.876 217.769 394.947 217.84 395.007L242.158 421.125C243.186 422.239 244.131 423.412 244.97 424.657H244.959Z" fill="url(#paint1_linear_0_1)"/>
<path d="M247.629 429.634L239.866 432.893C239.05 430.938 237.94 429.136 236.557 427.525L244.935 424.645C245.987 426.209 246.885 427.868 247.617 429.634H247.629Z" fill="url(#paint2_linear_0_1)"/>
<path d="M249.863 440.762C249.863 445.455 246.885 449.626 242.454 451.119L231.346 454.888C223.488 457.554 215.37 458.893 207.264 458.893C199.831 458.893 192.387 457.779 185.119 455.539L173.575 451.984C168.966 450.562 165.882 446.367 165.882 441.532V441.2C165.882 438.368 166.296 435.595 167.076 432.952C167.891 430.227 169.096 427.631 170.691 425.249C171.708 423.709 172.889 422.263 174.213 420.924L200.174 394.663C203.282 395.125 206.271 396.346 208.883 398.266C207.949 398.929 207.075 399.676 206.259 400.494L180.192 426.861C179.849 427.217 179.507 427.572 179.188 427.951C177.285 430.167 175.903 432.739 175.099 435.5C174.567 437.325 174.295 439.233 174.295 441.188V441.52C174.295 442.622 175.004 443.582 176.056 443.914L187.601 447.469C201.095 451.629 215.287 451.439 228.664 446.9L239.771 443.132C240.787 442.788 241.461 441.84 241.461 440.762C241.461 438.806 241.189 436.899 240.646 435.05L248.61 432.324C249.449 435.05 249.874 437.882 249.874 440.774L249.863 440.762Z" fill="url(#paint3_linear_0_1)"/>
<path d="M278.329 417.973C278.116 420.58 276.391 422.808 273.921 423.65L248.598 432.324L240.634 435.05L232.232 437.93C224.268 440.655 215.878 442.018 207.476 442.018C199.63 442.018 191.784 440.821 184.292 438.439L175.087 435.5C175.879 432.739 177.261 430.167 179.176 427.951L186.845 430.393C200.646 434.801 215.807 434.635 229.526 429.942L236.581 427.525L244.959 424.645L267.126 417.061L229.597 396.962C225.898 394.983 221.704 394.26 217.639 394.805C215.098 392.127 212.156 390.03 208.965 388.56C216.847 385.112 225.922 385.432 233.556 389.52L274.89 411.657C277.194 412.889 278.541 415.366 278.329 417.973Z" fill="url(#paint4_linear_0_1)"/>
</g>
<defs>
<linearGradient id="paint0_linear_0_1" x1="7.6665" y1="448" x2="427.574" y2="448" gradientUnits="userSpaceOnUse">
<stop stop-color="#5D35EC"/>
<stop offset="1" stop-color="#5E75FE"/>
</linearGradient>
<linearGradient id="paint1_linear_0_1" x1="216.705" y1="409.476" x2="147.224" y2="409.476" gradientUnits="userSpaceOnUse">
<stop stop-color="#C6BFF3"/>
<stop offset="1" stop-color="#FEFEFC"/>
</linearGradient>
<linearGradient id="paint2_linear_0_1" x1="216.705" y1="428.781" x2="147.224" y2="428.781" gradientUnits="userSpaceOnUse">
<stop stop-color="#C6BFF3"/>
<stop offset="1" stop-color="#FEFEFC"/>
</linearGradient>
<linearGradient id="paint3_linear_0_1" x1="182.709" y1="440.323" x2="200.38" y2="432.41" gradientUnits="userSpaceOnUse">
<stop stop-color="#C6BFF3"/>
<stop offset="1" stop-color="#FEFEFC"/>
</linearGradient>
<linearGradient id="paint4_linear_0_1" x1="258.642" y1="410.46" x2="232.987" y2="412.593" gradientUnits="userSpaceOnUse">
<stop stop-color="#C6BFF3"/>
<stop offset="1" stop-color="#FEFEFC"/>
</linearGradient>
<clipPath id="clip0_0_1">
<rect width="414" height="896" fill="white"/>
</clipPath>
</defs>
</svg>
