<?xml version="1.0" encoding="UTF-8"?>
<svg width="20px" height="12px" viewBox="0 0 20 12" version="1.1" xmlns="http://www.w3.org/2000/svg" xmlns:xlink="http://www.w3.org/1999/xlink">
    <title>Icon</title>
    <g id="Symbols" stroke="none" stroke-width="1" fill="none" fill-rule="evenodd">
        <g id="Icon-/-Speed" transform="translate(-2.000000, -6.000000)" fill="#000000">
            <path d="M12,6 C17.5228481,6 22,10.4771519 22,16 L22,17 C22,17.5522842 21.5522842,18 21,18 C20.4477158,18 20,17.5522842 20,17 L20,16 C20,11.5817223 16.4182777,8 12,8 C7.58172226,8 4,11.5817223 4,16 L4,17 C4,17.5522842 3.55228472,18 3,18 C2.44771528,18 2,17.5522842 2,17 L2,16 C2,10.4771528 6.47715282,6 12,6 Z M15.8000002,12.6000004 L13.8395863,15.2138853 C13.9428387,15.4551935 14,15.7209215 14,16 C14,17.1045704 13.1045694,18 12,18 C10.8954306,18 10,17.1045704 10,16 C10,14.8954306 10.8954306,14 12,14 C12.0810041,14 12.1608839,14.0048161 12.2393675,14.0141764 L14.1999998,11.3999996 C14.5313711,10.9581718 15.1581726,10.8686295 15.6000004,11.1999998 C16.0418282,11.5313711 16.1313705,12.1581726 15.8000002,12.6000004 Z" id="Icon"></path>
        </g>
    </g>
</svg>