<?xml version="1.0" encoding="UTF-8"?>
<svg width="24px" height="24px" viewBox="0 0 24 24" version="1.1" xmlns="http://www.w3.org/2000/svg" xmlns:xlink="http://www.w3.org/1999/xlink">
    <title> Icon/Google</title>
    <g id="-Icon/Google" stroke="none" stroke-width="1" fill="none" fill-rule="evenodd">
        <path d="M18.0659143,19.1708572 C16.4306572,20.5519715 14.3092286,21.4285715 12,21.4285715 C8.56369713,21.4285715 5.54725712,19.5354857 3.91202568,16.7731714 L4.52421425,13.9512 L7.23779998,13.4474571 C7.86760284,15.4804286 9.76799999,16.9721143 12,16.9721143 C13.0827429,16.9721143 14.0882572,16.6296 14.9169429,16.0218857 L17.5245429,16.4196 L18.0659143,19.1708572 Z" id="Path" fill="#59C36A" fill-rule="nonzero"></path>
        <path d="M18.066,19.1708572 L17.5245429,16.4196857 L14.9169429,16.0218857 C14.0882572,16.6296 13.0827429,16.9721143 12,16.9721143 L12,21.4285715 C14.3093143,21.4285715 16.4306572,20.5519715 18.066,19.1708572 Z" id="Path" fill="#00A66C" fill-rule="nonzero"></path>
        <path d="M7.02790284,12 C7.02790284,12.5082 7.10524284,12.9943714 7.23783427,13.4474571 L3.91205139,16.7732572 C3.08337425,15.381 2.57142853,13.7457429 2.57142853,12 C2.57142853,10.2541714 3.08337425,8.61899999 3.91205139,7.22679427 L6.58126283,7.68617141 L7.23783427,10.5525429 C7.10524284,11.0055429 7.02790284,11.4917143 7.02790284,12 Z" id="Path" fill="#FFDA2D" fill-rule="nonzero"></path>
        <path d="M21.4285715,12 C21.4285715,14.8727143 20.0990572,17.4472286 18.066,19.1708572 L14.9169429,16.0218857 C15.5577429,15.5577429 16.0992,14.9390572 16.4527714,14.2098 L12,14.2098 C11.6905714,14.2098 11.4475714,13.9667143 11.4475714,13.6573714 L11.4475714,10.3426286 C11.4475714,10.0332 11.6905714,9.79019999 12,9.79019999 L20.7214286,9.79019999 C20.9866286,9.79019999 21.2186572,9.97799999 21.2628,10.2431143 C21.3732858,10.8177429 21.4285715,11.4144 21.4285715,12 Z" id="Path" fill="#4086F4" fill-rule="nonzero"></path>
        <path d="M18.2206286,5.20475997 C18.2316857,5.35944854 18.1653429,5.50312283 18.0659143,5.61358283 L15.7014,7.96703998 C15.5136,8.16592284 15.2042572,8.18801998 14.9832857,8.02228284 C14.1102857,7.37042569 13.0827429,7.02790284 12,7.02790284 C9.76799999,7.02790284 7.86760284,8.51949427 7.23779998,10.5525429 L3.91202568,7.22678569 C5.54725712,4.46450568 8.56369713,2.57142853 12,2.57142853 C14.1987429,2.57142853 16.3422857,3.38169425 18.0217715,4.79594568 C18.1433143,4.89542568 18.2095715,5.0500714 18.2206286,5.20475997 Z" id="Path" fill="#FF641A" fill-rule="nonzero"></path>
        <path d="M14.9832857,8.02228284 C15.2042572,8.18805427 15.5136,8.16592284 15.7014,7.96703998 L18.0659143,5.61358283 C18.1654286,5.50312283 18.2316857,5.35948283 18.2206286,5.20475997 C18.2095715,5.05003711 18.1433143,4.89542568 18.0217715,4.79594568 C16.3422857,3.38169425 14.1987429,2.57142853 12,2.57142853 L12,7.02790284 C13.0827429,7.02790284 14.1103714,7.37042569 14.9832857,8.02228284 Z" id="Path" fill="#F03800" fill-rule="nonzero"></path>
    </g>
</svg>