<?xml version="1.0" encoding="UTF-8"?>
<svg width="18px" height="20px" viewBox="0 0 18 20" version="1.1" xmlns="http://www.w3.org/2000/svg" xmlns:xlink="http://www.w3.org/1999/xlink">
    <title>Icon / Home</title>
    <g id="Symbols" stroke="none" stroke-width="1" fill="none" fill-rule="evenodd">
        <g id="Tab-Bar-/-Downloads" transform="translate(-39.000000, -18.000000)" fill="#9196A8">
            <g id="Icon-/-Home" transform="translate(36.000000, 16.000000)">
                <path d="M13.8102446,2.59726821 C12.7148085,1.77494606 11.2099228,1.80445167 10.1467004,2.66910404 L4.12226677,7.56839654 C3.4127878,8.14537003 3,9.01739261 3,9.93920947 L3,18.9600839 C3,20.6389816 4.34314525,22 6,22 L8,22 L10,22 L14,22 L16,22 L18,22 C19.6568508,22 21,20.6389855 21,18.9600839 L21,9.52565864 C21,8.56251042 20.5495644,7.65634236 19.7858124,7.08300868 L13.8102446,2.59726821 Z M18,19.9733893 C18.5522842,19.9733893 19,19.5197165 19,18.9600839 L19,9.52565864 C19,9.20460955 18.8498545,8.90255337 18.5952702,8.71144198 L12.6197033,4.2257014 C12.2545576,3.95159365 11.7529297,3.96142942 11.3985224,4.24964643 L5.374089,9.14893881 C5.13759589,9.34126347 5,9.63193734 5,9.93920947 L5,18.9600839 C5,19.5197165 5.44771528,19.9733893 6,19.9733893 L8,19.9733893 L8,16.9334722 C8,14.6949399 9.79086113,12.8802507 12,12.8802507 C14.2091389,12.8802507 16,14.6949399 16,16.9334722 L16,19.9733893 L18,19.9733893 Z M14,19.9733893 L14,16.9334722 C14,15.814206 13.1045694,14.9068614 12,14.9068614 C10.8954306,14.9068614 10,15.814206 10,16.9334722 L10,19.9733893 L14,19.9733893 Z" id="Icon"></path>
            </g>
        </g>
    </g>
</svg>