<?xml version="1.0" encoding="UTF-8"?>
<svg width="18px" height="12px" viewBox="0 0 18 12" version="1.1" xmlns="http://www.w3.org/2000/svg" xmlns:xlink="http://www.w3.org/1999/xlink">
    <title>Icon / More</title>
    <g id="Design" stroke="none" stroke-width="1" fill="none" fill-rule="evenodd">
        <g id="Home" transform="translate(-27.000000, -70.000000)" fill="#202849">
            <g id="Shape" transform="translate(24.000000, 64.000000)">
                <path d="M3,7 C3,6.44772 3.44772,6 4,6 L20,6 C20.5523,6 21,6.44772 21,7 C21,7.55228 20.5523,8 20,8 L4,8 C3.44772,8 3,7.55228 3,7 Z M3,12 C3,11.4477 3.44772,11 4,11 L14,11 C14.5523,11 15,11.4477 15,12 C15,12.5523 14.5523,13 14,13 L4,13 C3.44772,13 3,12.5523 3,12 Z M4,16 C3.44772,16 3,16.4477 3,17 C3,17.5523 3.44772,18 4,18 L8,18 C8.55228,18 9,17.5523 9,17 C9,16.4477 8.55228,16 8,16 L4,16 Z"></path>
            </g>
        </g>
    </g>
</svg>