<?xml version="1.0" encoding="UTF-8"?>
<svg width="14px" height="16px" viewBox="0 0 14 16" version="1.1" xmlns="http://www.w3.org/2000/svg" xmlns:xlink="http://www.w3.org/1999/xlink">
    <title>Combined Shape</title>
    <g id="Symbols" stroke="none" stroke-width="1" fill="none" fill-rule="evenodd">
        <g id="Icon-/-Play" transform="translate(-7.000000, -4.000000)" fill="#202849">
            <path d="M9,4.69210555 C9.355794,4.69210555 9.70514738,4.78701853 10.0120286,4.96705538 L12.9861231,6.71185608 L17,9.06666527 L19.0595759,10.2749504 C20.0122945,10.8338789 20.3315245,12.059311 19.772596,13.0120296 C19.5997222,13.3067006 19.3542469,13.5521759 19.0595759,13.7250496 L17,14.9333347 L12.9861231,17.2881439 L10.0120286,19.0329446 C9.05930973,19.5918726 7.83387781,19.272642 7.27494984,18.3199231 C7.09491298,18.0130418 7,17.6636884 7,17.3078945 L7,6.69210555 C7,5.58753605 7.8954305,4.69210555 9,4.69210555 Z M10,7.6995138 C9.44771525,7.6995138 9,8.14722905 9,8.6995138 L9,8.6995138 L9,15.3004862 C9,15.4704303 9.04331044,15.6375709 9.12584256,15.7861288 C9.39405558,16.2689127 10.0028588,16.4428567 10.4856426,16.1746436 L10.4856426,16.1746436 L12.5916739,15.0046272 L15,13.6666675 L16.4265178,12.8741572 C16.5897578,12.7834683 16.724343,12.648883 16.8150319,12.4856431 C17.0832452,12.0028594 16.9093015,11.3940561 16.4265178,11.1258428 L16.4265178,11.1258428 L15,10.3333325 L12.5916739,8.99537277 L10.4856426,7.82535636 C10.3370847,7.74282425 10.1699441,7.6995138 10,7.6995138 Z" id="Combined-Shape"></path>
        </g>
    </g>
</svg>