<?xml version="1.0" encoding="UTF-8"?>
<svg width="20px" height="20px" viewBox="0 0 20 20" version="1.1" xmlns="http://www.w3.org/2000/svg" xmlns:xlink="http://www.w3.org/1999/xlink">
    <title>Icon / Setting</title>
    <g id="Symbols" stroke="none" stroke-width="1" fill="none" fill-rule="evenodd">
        <g id="Tab-Bar-/-Find" transform="translate(-332.000000, -18.000000)" fill="#9196A8">
            <g id="Icon-/-Setting" transform="translate(330.000000, 16.000000)">
                <path d="M8.53850508,2.72527885 L7.77809525,5.38671398 L5.14145041,5.01005054 C4.69383383,4.94610524 4.25899935,5.1904788 4.08088422,5.60608077 L2.58088417,9.10608053 C2.41980876,9.4819231 2.50378326,9.9179678 2.79292247,10.2071066 L4.58581591,12 L2.79292247,13.7928934 C2.47405186,14.111764 2.40805174,14.6046038 2.63178606,14.9961386 L4.63178611,18.4961395 C4.83946562,18.8595772 5.25153184,19.0552101 5.66442823,18.986393 L7.78377581,18.6331692 L8.53850508,21.2747211 C8.66116285,21.7040234 9.05354881,22 9.50002909,22 L14.5000296,22 C14.9465103,22 15.3388958,21.7040234 15.4615536,21.2747211 L16.2162828,18.6331692 L18.3356304,18.986393 C18.7485256,19.0552101 19.160593,18.8595772 19.3682728,18.4961395 L21.3682709,14.9961386 C21.5920067,14.6046038 21.5260067,14.111764 21.2071362,13.7928934 L19.4142418,12 L21.2071362,10.2071066 C21.4962749,9.9179678 21.5802498,9.4819231 21.4191742,9.10608053 L19.9191742,5.60608077 C19.7410583,5.1904788 19.3062248,4.94610524 18.8586082,5.01005054 L16.2219639,5.38671398 L15.4615536,2.72527885 C15.3388958,2.29597729 14.9465103,2 14.5000296,2 L9.50002909,2 C9.05354881,2 8.66116285,2.29597729 8.53850508,2.72527885 Z M10.2543306,4 L13.7457285,4 L14.5385056,6.77472115 C14.6757946,7.25523138 15.1467352,7.56062317 15.6414509,7.4899497 L18.3827753,7.09833145 L19.314188,9.2716279 L17.292923,11.2928934 C16.9023981,11.6834173 16.9023981,12.3165827 17.292923,12.7071066 L19.2528381,14.6670227 L17.9773664,16.8990955 L15.6644287,16.5136061 C15.1627522,16.4299936 14.6782274,16.7362509 14.5385056,17.2252789 L13.7457285,20 L10.2543306,20 L9.4615531,17.2252789 C9.32183075,16.7362509 8.83730698,16.4299936 8.33562994,16.5136061 L6.0226922,16.8990955 L4.74722099,14.6670218 L6.70713615,12.7071066 C7.09766006,12.3165827 7.09766006,11.6834173 6.70713615,11.2928934 L4.68587065,9.2716279 L5.61728334,7.09833193 L8.35860777,7.4899497 C8.85332298,7.56062317 9.32426453,7.25523138 9.4615531,6.77472115 L10.2543306,4 Z M10.0000291,12 C10.0000291,10.8954306 10.8954601,10 12.0000286,10 C13.104599,10 14.0000286,10.8954306 14.0000286,12 C14.0000286,13.1045694 13.104599,14 12.0000286,14 C10.8954601,14 10.0000291,13.1045694 10.0000291,12 Z M12.0000286,8 C14.2091675,8 16.0000286,9.79086113 16.0000286,12 C16.0000286,14.2091389 14.2091675,16 12.0000286,16 C9.79089022,16 8.00002909,14.2091389 8.00002909,12 C8.00002909,9.79086113 9.79089022,8 12.0000286,8 Z" id="Icon"></path>
            </g>
        </g>
    </g>
</svg>